<svg xmlns="http://www.w3.org/2000/svg" viewBox="0 0 875.000000 153.000000" width="875" height="153"><g transform="translate(0.000000,153.000000) scale(0.100000,-0.100000)"><path d="M4685 1340 c-41 -13 -107 -15 -188 -5 -44 5 -100 4 -155 -4 -148 -21 -191 -33 -217 -60 -13 -14 -54 -57 -90 -94 -36 -38 -65 -74 -65 -80 -1 -31 -86 -97 -125 -97 -11 0 -38 -7 -61 -15 -55 -19 -429 -85 -483 -85 -23 0 -50 -4 -59 -9 -31 -17 -245 -49 -362 -55 -63 -3 -248 -8 -410 -11 -162 -3 -344 -7 -405 -10 -60 -3 -281 -8 -490 -11 -209 -3 -400 -8 -425 -10 -25 -3 -189 -7 -365 -10 -406 -6 -554 -21 -569 -59 -9 -24 18 -34 119 -40 139 -8 480 -18 540 -16 124 6 1321 3 1597 -3 306 -7 482 -21 633 -51 44 -9 103 -21 130 -26 28 -6 70 -12 95 -15 76 -8 225 -34 282 -48 29 -8 96 -19 148 -26 156 -20 186 -34 236 -112 14 -22 37 -41 59 -49 19 -7 35 -16 35 -21 0 -4 13 -22 30 -41 40 -46 92 -60 241 -62 70 -1 131 -5 137 -9 14 -8 477 -29 624 -27 71 1 156 9 218 21 56 11 137 20 179 20 138 0 169 8 210 53 65 72 85 89 121 104 19 8 85 39 145 68 179 88 206 93 595 99 184 3 353 10 375 16 64 16 221 38 330 45 55 4 123 13 150 21 28 8 109 19 180 25 72 5 189 21 260 34 286 52 263 51 403 25 214 -39 241 -34 302 56 l32 45 -24 46 c-12 24 -40 58 -61 75 -37 30 -38 30 -130 24 -96 -5 -176 -16 -262 -34 -30 -6 -187 -10 -386 -10 -302 0 -339 -2 -363 -17 -21 -14 -38 -16 -89 -11 -68 8 -63 8 -297 6 -91 -1 -185 3 -210 8 -25 6 -128 14 -230 17 -102 4 -218 13 -257 20 -91 18 -223 70 -286 112 -27 18 -67 38 -90 44 -80 21 -146 60 -206 121 l-59 60 -118 7 c-66 4 -124 10 -130 13 -6 4 -46 17 -90 29 -71 21 -105 23 -349 25 -150 2 -283 -1 -300 -6z" fill="#35bec0" stroke="#ffb000" stroke-width="40" stroke-linejoin="round"/></g></svg>