<svg xmlns="http://www.w3.org/2000/svg" viewBox="0 0 1809.000000 692.000000" width="1809" height="692"><g transform="translate(0.000000,692.000000) scale(0.100000,-0.100000)"><path d="M17135 6344 c-379 -38 -702 -113 -1158 -270 -432 -148 -790 -306 -1172 -516 -55 -30 -131 -72 -170 -93 -38 -21 -149 -82 -245 -135 -527 -292 -1110 -587 -1488 -754 -530 -235 -1310 -521 -1883 -691 -123 -37 -307 -91 -409 -122 -526 -156 -1103 -356 -1700 -588 -80 -31 -255 -97 -390 -147 -303 -111 -427 -161 -695 -278 -540 -236 -635 -273 -940 -369 -407 -127 -732 -199 -1080 -240 -368 -44 -768 -71 -1365 -95 -1049 -42 -1114 -46 -1385 -77 -663 -75 -1214 -230 -1825 -514 -391 -181 -910 -482 -910 -527 0 -26 22 -22 108 18 762 359 1401 578 1958 673 347 59 658 84 1054 85 319 0 443 -6 1085 -55 1048 -79 1432 -86 2035 -39 181 15 623 57 823 80 95 10 255 28 357 39 102 12 194 23 205 25 79 18 341 27 494 16 205 -14 348 -33 363 -48 8 -8 14 -96 19 -248 l8 -236 -25 -47 c-15 -25 -29 -50 -33 -56 -4 -5 -15 -35 -25 -65 -19 -58 -32 -93 -47 -122 -5 -10 -9 -27 -9 -37 0 -11 -4 -23 -10 -26 -5 -3 -10 -13 -10 -22 0 -8 -7 -31 -16 -51 -9 -21 -20 -46 -24 -57 -4 -11 -15 -36 -24 -57 -9 -20 -16 -39 -16 -42 0 -4 -15 -39 -34 -79 -19 -40 -40 -91 -48 -114 -7 -24 -16 -43 -20 -43 -5 0 -8 -8 -8 -18 0 -10 -3 -22 -7 -25 -14 -15 -43 -114 -43 -149 0 -33 4 -40 38 -57 91 -46 136 -52 373 -48 243 5 309 12 309 32 0 26 -66 71 -130 89 -119 33 -149 47 -171 78 l-22 30 22 40 c11 22 21 45 21 50 0 15 122 198 132 198 4 0 8 6 8 14 0 8 4 16 8 18 4 2 32 32 61 68 30 36 58 66 62 68 5 2 9 10 9 17 0 7 3 15 8 17 13 5 62 76 62 89 0 7 6 20 14 28 18 20 74 174 93 258 3 13 11 23 17 23 23 0 35 -45 40 -150 3 -58 10 -141 16 -185 22 -166 42 -426 47 -597 4 -173 5 -178 26 -183 30 -8 560 1 620 10 57 8 59 22 13 63 -30 26 -120 62 -155 62 -29 0 -119 50 -136 76 -25 38 -31 165 -15 294 7 52 16 124 21 160 4 36 13 90 20 120 15 73 23 398 11 424 -6 12 -13 31 -15 44 -6 27 -3 27 118 7 170 -28 735 -13 936 25 29 6 52 10 53 10 0 0 2 -127 4 -283 1 -155 7 -309 13 -341 10 -55 9 -63 -15 -110 -27 -53 -50 -83 -114 -151 -45 -47 -72 -88 -72 -109 0 -21 88 -95 145 -122 55 -26 107 -31 122 -11 5 6 16 32 23 57 18 59 53 114 107 170 47 49 93 131 93 166 0 13 5 26 10 29 6 3 10 28 10 55 0 27 4 80 10 117 24 170 40 311 40 346 0 39 12 71 36 95 8 7 17 19 21 27 5 7 14 15 22 17 12 2 14 -18 12 -124 -3 -118 1 -149 29 -223 4 -11 16 -47 25 -80 10 -33 21 -68 26 -77 5 -10 9 -29 9 -42 0 -14 5 -28 10 -31 6 -3 10 -19 10 -35 0 -16 4 -31 9 -34 5 -3 12 -25 15 -48 7 -45 25 -104 40 -126 4 -7 7 -102 6 -210 -1 -108 -2 -203 -1 -210 1 -10 35 -12 149 -10 l147 3 3 28 c2 16 -1 34 -6 40 -17 22 -22 100 -14 237 8 136 3 242 -17 380 -20 136 -44 344 -44 395 -1 28 7 91 16 140 9 50 21 119 27 155 19 113 21 125 30 145 15 38 30 102 30 132 0 23 15 44 73 100 163 159 181 198 207 458 30 310 50 355 197 458 57 40 184 128 281 196 97 68 195 135 216 149 22 13 44 28 50 33 16 14 420 297 575 404 47 32 89 62 95 66 6 5 79 57 161 116 83 59 152 109 155 113 3 3 18 14 35 24 16 11 34 23 40 28 5 5 89 68 185 139 96 71 186 138 200 149 14 10 149 112 300 226 270 203 423 319 447 339 7 6 18 15 25 20 8 6 43 32 78 60 36 27 67 52 70 55 3 3 34 28 70 55 36 27 67 52 70 55 16 17 260 195 368 267 226 151 433 263 729 394 382 169 711 236 966 198 139 -21 218 -51 275 -106 7 -7 21 -13 31 -13 23 0 91 101 91 133 0 31 -19 87 -30 87 -4 0 -15 17 -23 39 -20 49 -118 193 -167 244 -32 34 -48 42 -121 59 -82 19 -328 32 -424 22z" fill="#35bec0" stroke="#ffb000" stroke-width="100" stroke-linejoin="round"/></g></svg>