<svg xmlns="http://www.w3.org/2000/svg" viewBox="0 0 1208.000000 1063.000000" width="1208" height="1063"><g transform="translate(0.000000,1063.000000) scale(0.100000,-0.100000)"><path d="M10739 10130 c-165 -19 -265 -55 -362 -134 -44 -35 -67 -73 -67 -111 0 -34 -118 -152 -182 -182 -25 -12 -49 -27 -53 -33 -3 -5 -37 -28 -74 -50 -62 -37 -70 -45 -74 -78 -21 -156 -40 -248 -54 -272 -15 -26 -15 -33 0 -93 16 -63 16 -67 -3 -109 -25 -54 -25 -93 -1 -188 34 -134 46 -350 32 -586 -15 -268 -36 -473 -62 -599 -12 -55 -23 -103 -24 -106 -2 -3 -13 -40 -24 -82 -12 -42 -39 -115 -60 -161 -39 -84 -60 -118 -302 -476 -121 -179 -254 -398 -354 -585 -27 -49 -62 -112 -78 -140 -16 -27 -48 -84 -70 -125 -242 -452 -307 -555 -567 -895 -380 -498 -921 -959 -1415 -1207 -441 -222 -759 -335 -1160 -412 -44 -9 -102 -20 -130 -26 -131 -26 -394 -52 -670 -66 -244 -12 -711 24 -982 77 -291 56 -426 93 -718 197 -400 143 -841 262 -1150 312 -224 37 -278 52 -443 125 -111 49 -245 92 -312 101 -30 4 -64 13 -75 20 -31 22 -56 16 -85 -18 -26 -31 -27 -31 -75 -19 -100 25 -193 -23 -238 -124 -25 -56 -58 -90 -98 -104 -57 -19 -76 -42 -123 -151 -51 -115 -50 -113 -87 -161 -67 -88 -69 -196 -9 -364 17 -50 60 -173 95 -275 137 -404 276 -655 564 -1019 173 -217 358 -394 592 -563 245 -177 438 -283 801 -439 367 -157 869 -309 1222 -370 180 -30 461 -72 531 -79 44 -4 132 -13 195 -19 294 -28 713 -38 925 -21 564 46 797 83 1245 200 107 28 272 71 365 95 292 75 324 84 555 162 474 159 722 275 1170 548 283 172 661 456 955 716 122 109 346 331 397 396 18 23 87 106 153 185 269 320 518 663 655 903 64 110 159 295 199 385 18 41 40 89 48 105 51 107 130 325 186 515 100 337 142 854 97 1200 -16 120 -61 314 -101 435 -51 151 -197 449 -285 580 -37 55 -101 150 -141 210 -173 259 -246 472 -283 835 -17 161 -1 437 36 619 17 85 67 201 118 270 61 84 67 102 76 254 6 117 13 154 35 212 80 208 87 256 65 500 -15 177 -11 167 -101 230 -88 62 -107 67 -220 55z" fill="#9900ff" stroke="#ffb000" stroke-width="100" stroke-linejoin="round"/></g></svg>