<svg xmlns="http://www.w3.org/2000/svg" viewBox="0 0 1448.000000 415.000000" width="1448" height="415"><g transform="translate(0.000000,415.000000) scale(0.100000,-0.100000)"><path d="M12640 3295 c-14 -8 -34 -14 -46 -15 -26 0 -64 -40 -64 -67 0 -11 -7 -26 -15 -33 -8 -7 -15 -18 -15 -24 -2 -26 -166 -129 -281 -175 -96 -38 -194 -66 -310 -91 -104 -22 -92 -24 -204 37 -275 149 -597 235 -1070 287 -77 9 -165 19 -195 22 -109 13 -601 31 -891 33 -312 2 -1316 -22 -1654 -39 -110 -6 -315 -17 -455 -25 -140 -7 -412 -17 -605 -20 -192 -3 -584 -12 -870 -20 -286 -8 -866 -17 -1290 -20 -1869 -13 -2094 -21 -2485 -91 -204 -36 -465 -104 -650 -168 -221 -78 -439 -143 -601 -181 -59 -14 -135 -34 -170 -45 -35 -11 -80 -20 -100 -20 -55 0 -80 -26 -84 -85 -2 -27 1 -57 6 -67 11 -20 -21 -98 -66 -157 -14 -19 -25 -40 -25 -47 0 -6 -11 -22 -25 -35 -16 -16 -25 -35 -25 -56 0 -17 -5 -35 -11 -39 -13 -8 -7 -54 16 -114 10 -25 19 -56 20 -70 2 -14 8 -49 14 -79 6 -29 11 -72 11 -95 1 -47 6 -55 80 -117 118 -98 169 -126 329 -181 64 -22 233 -98 376 -168 318 -156 397 -188 595 -244 159 -45 233 -60 475 -96 398 -60 1219 -85 2530 -77 517 3 1019 10 1115 16 96 5 344 15 550 21 206 6 492 15 635 20 835 31 1003 36 1725 50 278 5 555 12 615 15 61 3 227 10 370 15 245 10 307 15 550 40 337 35 802 129 999 202 160 58 335 162 442 263 27 26 132 153 143 173 13 25 165 209 187 227 94 78 191 139 344 218 268 137 310 160 355 188 22 14 63 34 90 44 65 24 207 104 286 160 38 27 49 30 111 28 60 -2 68 -1 68 16 0 10 7 24 15 31 8 7 15 22 15 34 0 29 33 93 66 127 18 19 25 35 22 55 -2 23 2 29 22 34 22 5 19 7 -17 13 -31 5 -49 15 -65 37 -12 17 -27 30 -34 30 -6 0 -18 7 -25 16 -7 9 -36 27 -64 40 -111 54 -123 63 -135 98 -6 19 -22 42 -36 51 -14 9 -30 30 -36 46 -9 27 -28 40 -28 20 0 -15 -59 -31 -112 -31 -27 0 -74 9 -106 21 -231 82 -267 90 -312 64z" fill="#9900ff" stroke="#ffb000" stroke-width="100" stroke-linejoin="round"/></g></svg>