<svg xmlns="http://www.w3.org/2000/svg" viewBox="0 0 1920.000000 419.000000" width="1920" height="419"><g transform="translate(0.000000,419.000000) scale(0.100000,-0.100000)"><path d="M8615 3875 c-16 -2 -115 -9 -220 -15 -511 -30 -1283 -105 -1490 -145 -75 -14 -466 -75 -605 -94 -41 -6 -130 -15 -198 -21 -67 -5 -166 -17 -220 -24 -180 -27 -326 -36 -588 -36 -204 0 -264 -3 -279 -14 -17 -12 -16 -14 18 -25 20 -7 52 -28 72 -48 28 -28 35 -43 35 -73 0 -33 -6 -44 -46 -79 -32 -28 -67 -47 -113 -61 -147 -44 -929 -223 -1071 -245 -185 -29 -747 -173 -1085 -277 -355 -109 -450 -148 -810 -326 l-289 -144 -116 12 c-63 6 -216 22 -340 35 -306 33 -465 39 -662 26 -184 -12 -198 -15 -198 -40 0 -17 22 -30 135 -82 28 -13 74 -38 104 -57 52 -33 69 -47 155 -123 74 -65 105 -80 184 -95 42 -7 79 -13 81 -14 2 0 -10 -12 -26 -27 -34 -32 -55 -94 -77 -233 -29 -184 -47 -229 -115 -281 -24 -19 -51 -41 -60 -49 -11 -11 -38 -15 -105 -15 -86 0 -94 2 -140 33 -95 62 -143 29 -95 -66 52 -103 147 -169 283 -199 86 -19 369 -22 466 -4 239 43 409 97 603 190 96 46 277 151 303 175 7 6 27 22 46 36 40 31 139 130 154 156 10 17 15 17 65 5 30 -7 101 -23 159 -37 110 -25 643 -88 1065 -126 292 -26 743 -29 1970 -14 734 8 820 6 1320 -30 512 -36 1105 -118 1730 -239 160 -30 346 -66 415 -80 69 -13 235 -45 370 -70 250 -47 647 -124 1255 -242 187 -36 344 -69 349 -74 6 -5 0 -17 -15 -29 -13 -11 -29 -24 -35 -28 -5 -5 -39 -30 -75 -56 -35 -25 -68 -49 -74 -54 -5 -4 -66 -43 -135 -87 -69 -44 -130 -84 -137 -90 -6 -5 -25 -21 -42 -33 -33 -25 -48 -74 -36 -112 7 -22 11 -22 94 -17 83 6 323 58 504 111 158 47 339 117 495 192 118 57 163 74 197 74 24 0 148 -16 277 -34 307 -46 556 -80 813 -111 1051 -128 1449 -155 2299 -155 648 0 992 16 1311 61 39 5 259 34 490 64 586 75 895 135 1147 221 163 55 502 219 551 265 36 35 67 87 67 113 0 27 -62 87 -119 116 -77 38 -289 114 -449 160 -74 21 -136 41 -139 44 -11 10 9 45 29 52 25 8 128 112 128 129 0 7 7 26 15 43 9 17 19 50 23 74 7 42 8 43 67 61 201 61 226 71 261 101 31 27 36 36 30 59 -9 38 -77 85 -251 172 -255 128 -587 228 -1400 425 -363 88 -448 114 -643 199 -225 98 -345 141 -393 141 -22 0 -93 -10 -156 -22 -126 -23 -98 -26 -363 31 -150 33 -611 147 -807 200 -62 17 -217 53 -345 80 -128 28 -375 81 -548 120 -942 209 -1560 322 -2640 481 -69 11 -249 37 -400 60 -294 43 -621 82 -840 99 -74 6 -193 16 -265 22 -125 10 -818 21 -880 14z" fill="#0084ff" stroke="#ffb000" stroke-width="100" stroke-linejoin="round"/></g></svg>