<svg xmlns="http://www.w3.org/2000/svg" viewBox="0 0 705.000000 217.000000" width="705" height="217"><g transform="translate(0.000000,217.000000) scale(0.100000,-0.100000)"><path d="M186 2071 c-3 -5 8 -39 24 -76 33 -74 74 -222 90 -325 11 -76 27 -284 34 -453 3 -65 9 -124 15 -131 7 -8 6 -25 -3 -51 -8 -25 -16 -119 -20 -245 -10 -305 -42 -487 -113 -643 -42 -91 -37 -104 33 -80 82 28 214 173 305 336 60 108 127 244 153 312 89 233 106 245 318 225 140 -13 559 -65 733 -90 155 -23 551 -64 760 -80 83 -6 211 -20 285 -30 213 -31 609 -78 795 -95 94 -9 208 -20 255 -25 133 -15 470 -30 630 -28 147 1 270 -8 270 -21 0 -4 -19 -12 -42 -19 -54 -14 -145 -94 -199 -173 -70 -103 -206 -199 -306 -215 -45 -7 -89 -36 -79 -53 10 -16 163 -14 260 4 180 32 284 97 421 265 93 114 147 170 180 188 25 14 64 17 250 17 215 0 221 1 285 27 64 26 70 27 350 31 290 5 344 11 533 56 185 44 366 132 465 225 66 62 82 92 82 150 0 83 -94 176 -265 260 -114 57 -208 88 -365 121 -111 24 -159 27 -435 35 -307 9 -311 9 -375 36 -63 27 -71 28 -225 26 -241 -3 -287 3 -337 45 -23 19 -62 60 -86 91 -58 75 -102 122 -196 209 -64 60 -89 76 -142 93 -129 39 -338 63 -388 44 -44 -17 -5 -42 110 -73 76 -20 188 -103 248 -183 75 -101 141 -163 206 -191 l55 -25 -55 -5 c-30 -4 -181 -8 -335 -11 -328 -6 -832 -51 -1355 -121 -243 -32 -362 -45 -550 -60 -258 -21 -437 -40 -655 -70 -294 -40 -733 -93 -835 -101 -108 -7 -156 6 -185 50 -10 14 -43 89 -75 167 -89 214 -218 437 -320 551 -73 82 -184 141 -204 109z" fill="#0084ff" stroke="#ffb000" stroke-width="60" stroke-linejoin="round"/></g></svg>