<svg xmlns="http://www.w3.org/2000/svg" viewBox="0 0 545.000000 176.000000" width="545" height="176"><g transform="translate(545.000000,0) rotate(90)"><g transform="translate(0.000000,545.000000) scale(0.100000,-0.100000)"><path d="M1495 5352 c-30 -11 -69 -36 -95 -63 -25 -24 -107 -101 -182 -172 -195 -182 -296 -322 -435 -601 -78 -159 -135 -326 -178 -526 -21 -96 -55 -249 -77 -340 -21 -91 -45 -192 -53 -226 -42 -181 -69 -259 -105 -299 -49 -54 -140 -176 -140 -187 0 -5 -13 -40 -30 -77 -20 -47 -32 -95 -38 -157 -10 -104 -1 -148 45 -212 30 -41 37 -64 83 -257 32 -132 33 -148 16 -189 -8 -20 -27 -82 -42 -138 -25 -94 -26 -112 -21 -234 4 -111 3 -135 -10 -146 -30 -25 12 -151 62 -184 21 -14 31 -14 80 -3 64 14 91 41 100 98 3 20 9 54 13 76 l7 40 31 -55 c39 -68 119 -279 139 -362 21 -89 19 -209 -5 -300 -43 -166 -156 -376 -251 -470 -63 -61 -172 -130 -247 -155 -143 -48 -114 -95 38 -61 107 23 228 80 303 144 84 70 250 301 326 452 57 113 106 280 131 439 13 84 44 234 77 376 25 106 33 123 121 255 31 47 36 63 43 145 8 105 4 137 -25 187 -18 31 -20 54 -21 190 -2 190 -25 313 -68 354 -17 17 -18 28 -12 133 l7 114 -38 62 c-20 34 -52 79 -69 99 -39 46 -70 148 -92 297 -21 143 -29 608 -13 708 30 189 138 473 239 628 51 77 252 291 318 336 23 16 52 28 65 27 13 -1 40 7 59 19 18 12 52 26 75 32 44 12 63 36 67 86 2 25 -4 32 -35 47 -24 11 -38 25 -38 37 0 23 -31 51 -56 51 -10 -1 -41 -9 -69 -18z" fill="#3d63ae" stroke="#ffb000" stroke-width="40" stroke-linejoin="round"/></g></g></svg>