<svg xmlns="http://www.w3.org/2000/svg" viewBox="0 0 1767.000000 943.000000" width="1767" height="943"><g transform="translate(0.000000,943.000000) scale(0.100000,-0.100000)"><path d="M17170 9329 c-14 -6 -79 -10 -145 -10 -150 1 -396 -21 -536 -49 -375 -73 -938 -292 -1254 -489 -44 -27 -120 -75 -170 -105 -158 -99 -325 -210 -569 -381 -24 -16 -56 -39 -72 -50 -32 -22 -423 -315 -445 -333 -8 -7 -41 -33 -74 -59 -33 -26 -62 -50 -65 -53 -3 -3 -34 -28 -70 -55 -36 -27 -67 -52 -70 -55 -3 -3 -57 -48 -120 -100 -63 -52 -126 -105 -140 -116 -25 -21 -212 -177 -465 -388 -71 -60 -141 -118 -155 -130 -14 -11 -45 -37 -70 -56 -42 -33 -88 -71 -114 -95 -6 -6 -72 -59 -146 -119 -74 -59 -144 -116 -155 -125 -146 -121 -552 -414 -786 -567 -409 -267 -785 -482 -1494 -854 -66 -35 -142 -75 -170 -90 -27 -15 -162 -87 -300 -160 -137 -73 -308 -164 -380 -203 -71 -38 -159 -85 -195 -105 -36 -19 -83 -45 -105 -57 -22 -12 -83 -45 -135 -73 -52 -27 -139 -75 -194 -106 -54 -31 -101 -56 -103 -56 -3 0 -71 -37 -152 -82 -499 -278 -741 -426 -1171 -719 -135 -92 -214 -133 -345 -182 -179 -66 -480 -158 -880 -267 -143 -39 -332 -91 -420 -115 -713 -195 -1025 -267 -1420 -324 -385 -56 -550 -70 -1130 -97 -789 -37 -1329 -132 -1905 -337 -435 -155 -940 -419 -894 -467 9 -9 50 9 170 72 354 185 778 336 1108 393 344 59 476 70 856 70 358 0 390 -2 825 -55 493 -60 865 -82 1390 -83 409 0 546 7 955 48 665 66 692 68 985 69 l290 1 105 -32 c58 -18 123 -35 145 -38 53 -9 105 -25 105 -33 0 -4 -5 -47 -11 -97 -6 -49 -15 -128 -20 -175 -28 -257 -45 -360 -60 -375 -5 -5 -9 -17 -9 -27 0 -10 -4 -26 -9 -36 -11 -21 -41 -152 -41 -180 0 -12 -4 -24 -10 -27 -5 -3 -10 -17 -10 -31 0 -13 -4 -32 -9 -42 -5 -9 -17 -53 -27 -97 -9 -44 -21 -84 -26 -90 -4 -5 -8 -19 -8 -31 0 -13 -4 -25 -9 -28 -5 -4 -12 -29 -16 -56 -4 -27 -11 -52 -16 -56 -5 -3 -9 -15 -9 -28 0 -12 -4 -26 -8 -31 -5 -6 -17 -37 -26 -70 -10 -33 -21 -69 -26 -80 -4 -11 -20 -51 -35 -90 -14 -38 -31 -78 -36 -87 -5 -10 -9 -26 -9 -36 0 -10 -4 -22 -9 -28 -5 -5 -16 -33 -24 -63 -15 -52 -15 -56 4 -82 18 -26 141 -81 244 -108 117 -32 306 -56 435 -56 511 1 756 8 777 22 14 10 33 12 52 8 35 -8 71 9 71 33 0 33 -45 106 -79 129 -28 19 -47 23 -110 23 -71 0 -79 2 -114 31 l-38 32 4 96 c4 90 21 205 47 311 6 25 15 69 21 99 5 30 12 58 15 62 2 4 8 27 14 51 5 24 14 61 20 83 14 48 39 167 46 215 3 19 9 44 13 55 22 55 33 161 38 374 l6 233 76 -6 c42 -3 209 -8 371 -12 499 -10 936 35 1320 137 233 62 534 165 640 219 55 28 63 26 57 -13 -7 -39 -32 -149 -46 -197 -5 -19 -16 -60 -24 -90 -9 -30 -23 -77 -32 -103 -17 -52 -17 -76 4 -332 30 -358 34 -452 27 -604 -11 -253 -19 -280 -133 -443 -99 -141 -107 -203 -38 -274 25 -26 147 -75 223 -90 127 -26 119 -33 179 176 22 76 50 134 103 210 97 140 103 167 122 525 5 105 11 215 12 245 2 30 4 66 5 80 1 21 3 22 15 10 14 -15 42 -92 86 -240 13 -41 29 -94 36 -118 8 -23 14 -52 14 -62 0 -11 4 -28 9 -38 11 -20 23 -68 46 -172 9 -41 21 -91 27 -110 6 -21 7 -91 3 -170 -3 -74 -7 -182 -8 -239 -2 -103 -2 -104 26 -125 26 -19 44 -21 203 -24 156 -3 178 -2 195 14 23 21 25 70 4 136 -18 59 -23 256 -11 443 7 127 6 148 -14 230 -12 50 -25 110 -30 135 -20 107 -41 208 -51 245 -6 22 -14 60 -19 85 -17 99 -48 226 -60 250 -4 9 -11 39 -15 68 -4 29 -11 54 -16 58 -5 3 -9 230 -9 536 l0 532 73 75 c99 104 168 193 199 256 8 17 19 39 25 50 40 76 54 264 32 420 -23 166 -11 447 22 507 5 10 9 26 9 36 0 10 4 22 8 28 4 5 16 34 27 64 18 54 38 94 73 148 24 39 323 424 342 442 8 8 40 47 70 85 30 39 57 72 60 75 5 5 90 104 135 158 11 14 31 37 45 52 14 15 45 52 70 81 25 30 61 72 81 94 19 22 51 58 70 79 19 21 41 46 49 55 9 9 49 54 90 101 99 112 130 147 160 179 14 15 61 67 105 116 44 48 87 95 96 104 8 9 64 72 125 141 148 169 166 190 185 209 8 9 33 39 55 66 21 28 44 55 50 60 7 6 123 138 260 295 136 157 253 290 259 296 5 6 57 62 115 125 133 144 450 461 559 559 47 41 89 80 95 85 12 12 229 199 267 230 13 11 53 42 89 70 36 27 67 52 70 55 9 10 192 144 255 187 379 255 777 437 1135 519 126 29 298 32 400 8 92 -21 186 -71 222 -117 26 -32 35 -37 57 -32 14 4 36 16 48 27 l22 21 -21 31 c-31 44 -86 97 -139 134 -42 28 -66 58 -56 69 2 2 54 -13 116 -34 139 -46 164 -42 169 26 5 68 -13 99 -75 128 -55 26 -103 76 -103 106 0 32 -31 92 -57 112 -31 22 -124 31 -163 14z m-9700 -8466 c0 -181 -25 -570 -43 -655 -12 -62 -23 -70 -53 -37 -29 32 -66 48 -130 55 -58 7 -104 38 -104 69 0 7 -7 18 -15 25 -17 14 -19 42 -6 68 5 9 29 57 53 107 40 84 98 194 170 325 17 30 45 82 63 116 17 33 35 66 39 72 20 33 26 0 26 -145z" fill="#336da3" stroke="#ffb000" stroke-width="40" stroke-linejoin="round"/></g></svg>