<svg xmlns="http://www.w3.org/2000/svg" viewBox="0 0 668.000000 243.000000" width="668" height="243"><g transform="translate(0.000000,243.000000) scale(0.100000,-0.100000)"><path d="M4410 2091 c-53 -31 -177 -34 -1753 -39 -1169 -3 -1591 -2 -1600 7 -6 6 -34 11 -63 11 -28 0 -66 5 -83 11 -25 9 -38 9 -56 -1 -17 -9 -45 -11 -89 -7 -49 5 -69 3 -79 -8 -11 -10 -67 -15 -237 -19 -244 -6 -255 -9 -286 -69 -26 -49 -24 -533 4 -802 12 -120 4 -676 -10 -690 -2 -3 1 -37 7 -76 18 -120 -7 -113 453 -117 213 -2 1366 3 2562 10 1196 6 2216 11 2265 11 50 -1 124 -10 165 -19 122 -29 252 -27 410 8 74 16 180 38 235 49 55 11 112 29 127 39 15 11 32 20 38 20 5 0 10 6 10 14 0 16 67 221 104 321 l27 70 0 355 1 355 -41 122 c-23 66 -41 130 -41 140 0 10 -4 23 -9 28 -12 14 -42 107 -36 113 11 12 -100 53 -176 65 -46 7 -93 18 -105 25 -11 6 -60 18 -110 26 -49 9 -90 20 -92 26 -6 16 -287 13 -301 -4 -13 -15 -252 -43 -271 -31 -6 4 -9 13 -6 21 7 18 0 18 -34 -3 -24 -14 -34 -15 -55 -5 -18 8 -116 12 -323 12 -225 0 -301 3 -311 13 -8 7 -42 12 -94 12 -45 1 -93 4 -107 7 -14 4 -32 3 -40 -1z" fill="#4fff1f" stroke="#ffb000" stroke-width="70" stroke-linejoin="round"/></g></svg>