<svg xmlns="http://www.w3.org/2000/svg" viewBox="0 0 687.000000 252.000000" width="687" height="252"><g transform="translate(0.000000,252.000000) scale(0.100000,-0.100000)"><path d="M232 2445 c-57 -17 -70 -30 -77 -74 -3 -20 -13 -76 -23 -126 -17 -96 -20 -296 -15 -1212 3 -347 5 -424 17 -436 23 -23 340 -30 436 -10 48 10 128 17 225 17 l150 1 -4 -134 -3 -134 38 6 c22 4 49 7 61 7 20 0 22 7 29 80 7 88 6 87 79 71 28 -6 30 -9 36 -66 8 -90 51 -176 119 -239 73 -67 115 -86 213 -99 226 -30 476 89 554 264 19 42 33 61 50 65 13 4 575 5 1248 3 1076 -4 1227 -6 1235 -19 8 -13 58 -15 330 -18 l320 -3 21 -45 c28 -57 127 -148 188 -169 25 -9 87 -19 136 -22 56 -4 103 -12 125 -23 59 -30 153 -43 262 -37 84 4 109 10 161 36 120 58 210 177 226 296 4 30 10 57 13 60 3 3 65 8 139 11 181 7 212 11 238 35 19 18 21 30 21 118 0 71 -4 102 -14 110 -7 6 -40 16 -72 23 -32 6 -61 13 -63 15 -3 2 5 10 17 19 19 13 22 25 22 82 0 46 -6 79 -18 104 -11 20 -25 72 -31 115 -26 165 -36 178 -165 218 -170 53 -655 135 -801 135 -23 0 -33 7 -43 28 -22 47 -61 274 -77 446 -7 75 1 90 41 80 17 -4 24 0 29 18 4 12 13 30 20 38 7 8 16 31 20 50 4 19 16 46 27 61 13 18 18 34 13 48 -8 25 -81 66 -90 51 -11 -18 -25 -10 -39 24 -19 46 -51 60 -186 86 -192 36 -362 41 -1485 38 -594 -1 -1186 -1 -1315 0 -129 1 -363 2 -520 1 -157 -1 -296 -2 -310 -1 -14 1 -159 3 -323 6 -164 3 -301 7 -305 9 -4 2 -70 1 -147 -3 -156 -8 -666 -6 -681 2 -5 3 -28 0 -52 -7z" fill="#4fff1f" stroke="#ffb000" stroke-width="70" stroke-linejoin="round"/></g></svg>