<svg xmlns="http://www.w3.org/2000/svg" viewBox="0 0 1026.000000 903.000000" width="1026" height="903"><g transform="translate(0.000000,903.000000) scale(0.100000,-0.100000)"><path d="M9367 8458 c-13 -29 -29 -65 -35 -80 -20 -50 -40 -34 -50 39 -4 26 -12 48 -19 50 -7 3 -27 -17 -45 -43 -18 -26 -48 -62 -66 -80 -32 -34 -32 -34 -17 -71 9 -20 22 -45 30 -53 8 -9 15 -19 15 -22 0 -3 -35 -7 -79 -10 -72 -4 -84 -8 -162 -55 -103 -62 -204 -102 -280 -113 -96 -14 -229 -66 -321 -127 -20 -14 -64 -59 -97 -102 -32 -42 -103 -114 -156 -161 -53 -47 -117 -103 -141 -124 -59 -51 -194 -232 -241 -321 -20 -38 -60 -106 -89 -150 -28 -44 -88 -154 -132 -245 -45 -91 -101 -199 -125 -240 -24 -41 -63 -109 -87 -150 -25 -43 -79 -111 -124 -158 -45 -46 -83 -87 -84 -93 -9 -24 -241 -223 -282 -241 -80 -35 -273 -99 -345 -113 -38 -8 -101 -21 -140 -29 -191 -40 -407 -48 -560 -21 -44 8 -118 19 -165 25 -47 6 -132 17 -190 25 -81 11 -162 13 -350 8 -135 -3 -379 -6 -543 -5 -332 1 -322 -1 -374 71 -15 22 -43 48 -61 58 -18 10 -42 33 -52 50 -14 24 -26 32 -42 30 -17 -1 -24 5 -31 28 -5 17 -20 53 -33 82 -20 46 -28 53 -64 63 -22 6 -55 24 -73 39 -17 16 -46 35 -64 44 -49 26 -105 99 -328 432 -114 171 -224 330 -244 354 -20 24 -69 87 -110 140 -223 291 -303 376 -471 494 -63 44 -142 106 -175 137 -155 146 -283 218 -390 219 -46 1 -74 8 -121 31 -33 17 -101 39 -150 49 -49 10 -119 33 -156 50 -58 26 -79 31 -145 31 -91 -1 -168 -19 -186 -43 -11 -16 -19 -17 -56 -8 -24 5 -53 6 -65 1 -24 -9 -70 -57 -79 -81 -6 -19 18 -59 36 -59 7 0 25 -16 40 -35 l28 -35 -19 -28 c-32 -44 -36 -85 -14 -135 l20 -44 -53 -27 c-29 -15 -56 -33 -59 -42 -3 -8 -26 -24 -50 -35 -35 -15 -49 -29 -64 -62 -68 -149 -75 -169 -76 -218 -1 -54 -9 -65 -75 -101 -27 -15 -31 -22 -31 -61 0 -23 5 -48 11 -54 17 -17 3 -77 -25 -110 -13 -15 -26 -44 -29 -63 -9 -58 -21 -94 -40 -120 -10 -14 -36 -49 -58 -79 -44 -60 -48 -87 -18 -125 16 -20 19 -34 14 -54 -4 -15 -8 -52 -9 -83 -1 -31 -6 -63 -12 -70 -6 -8 -16 -33 -22 -55 -11 -39 -10 -46 19 -102 22 -44 40 -65 65 -77 19 -9 34 -19 34 -23 0 -4 -31 -41 -70 -82 -66 -71 -120 -153 -120 -184 0 -7 -7 -19 -16 -26 -11 -10 -14 -23 -8 -54 3 -23 11 -47 17 -54 6 -8 13 -32 16 -54 6 -38 9 -41 56 -56 28 -10 50 -23 50 -31 0 -8 -17 -23 -38 -34 -42 -21 -55 -53 -39 -95 6 -15 13 -53 16 -86 11 -100 9 -98 143 -90 109 6 115 6 111 -12 -3 -16 -17 -21 -90 -29 -48 -5 -89 -13 -93 -16 -6 -7 46 -47 143 -111 45 -30 76 -42 112 -46 64 -6 65 -23 1 -62 -50 -31 -81 -77 -77 -115 2 -11 10 -37 19 -59 10 -21 17 -47 17 -56 0 -24 43 -75 94 -111 34 -25 48 -29 107 -29 68 0 69 0 123 -49 30 -27 75 -61 100 -76 54 -31 242 -111 301 -126 22 -6 71 -24 108 -40 37 -15 115 -42 173 -59 114 -33 162 -54 181 -79 16 -22 8 -29 -43 -42 -42 -11 -69 -29 -43 -29 7 0 -9 -11 -35 -25 -26 -14 -53 -25 -61 -25 -25 0 -24 -16 4 -71 16 -30 31 -65 34 -79 4 -14 30 -51 59 -83 47 -52 60 -60 113 -73 99 -23 137 -19 223 25 42 22 91 49 107 60 17 12 36 21 43 21 24 0 82 -52 82 -74 0 -28 46 -125 72 -153 11 -12 54 -33 94 -45 66 -21 74 -26 74 -48 0 -35 31 -89 60 -105 14 -7 53 -21 87 -30 55 -16 73 -16 175 -5 148 16 213 5 258 -46 27 -32 34 -34 67 -28 l36 7 -8 -39 c-14 -73 -3 -173 27 -252 l21 -53 -21 -37 c-11 -20 -26 -57 -33 -81 -9 -30 -22 -49 -41 -60 -34 -20 -35 -29 -3 -37 14 -3 25 -11 25 -18 -1 -39 -17 -58 -84 -95 -102 -56 -116 -69 -122 -118 -4 -40 -3 -43 19 -43 22 0 24 -4 21 -32 -1 -18 -3 -37 -3 -42 -1 -4 -18 -23 -38 -42 l-37 -34 38 -32 c32 -29 38 -42 47 -98 14 -90 24 -109 63 -125 30 -13 35 -20 38 -52 3 -36 5 -38 41 -41 22 -2 41 -10 44 -18 3 -8 10 -14 17 -14 12 0 37 -43 56 -94 9 -25 14 -28 39 -23 44 9 80 -12 87 -51 6 -32 8 -33 39 -28 35 7 45 -4 45 -49 0 -13 5 -27 10 -30 6 -3 7 -17 4 -30 -8 -33 22 -89 44 -80 43 19 64 17 102 -10 28 -19 53 -28 81 -28 l41 0 -6 -53 -6 -54 40 0 c35 0 47 6 75 38 26 28 35 33 35 19 0 -11 6 -17 17 -15 11 2 18 -4 20 -17 2 -11 9 -45 15 -76 11 -52 14 -56 37 -55 14 1 37 8 50 15 22 12 26 11 44 -13 13 -19 28 -26 51 -26 41 0 76 -25 76 -54 0 -31 8 -36 36 -24 20 10 29 8 54 -10 20 -15 44 -22 74 -22 41 0 45 -2 51 -30 8 -37 27 -38 67 -5 38 33 48 32 48 -5 0 -27 3 -30 29 -30 17 0 32 -4 35 -9 3 -5 31 -11 62 -13 31 -3 59 -11 64 -18 7 -11 14 -11 38 -1 34 14 52 8 52 -16 0 -14 2 -14 19 1 14 13 28 16 49 11 17 -3 49 -1 73 5 33 9 48 9 66 -1 21 -11 25 -10 39 9 18 25 34 29 34 7 0 -8 5 -15 10 -15 6 0 10 5 10 11 0 8 15 9 45 5 36 -6 46 -4 51 8 9 24 20 19 43 -19 12 -21 28 -35 40 -35 11 0 21 -8 24 -17 3 -14 6 -11 11 10 17 59 52 21 154 -170 32 -59 73 -135 92 -168 18 -33 45 -82 60 -110 56 -102 100 -230 100 -289 0 -74 60 -250 98 -288 l27 -27 410 -9 c226 -5 595 -8 820 -6 226 1 483 3 573 3 l162 1 10 25 c12 32 34 32 106 0 32 -14 59 -23 62 -20 3 3 0 15 -7 28 -23 41 -95 84 -196 117 -92 29 -116 32 -295 40 -317 15 -474 30 -665 66 l-80 14 -85 88 c-47 48 -125 125 -174 172 -160 153 -560 601 -592 661 -13 27 -13 28 18 43 17 9 37 16 45 16 23 0 63 51 93 117 16 35 33 63 38 63 13 0 32 46 32 78 0 36 10 49 43 57 15 4 27 10 27 14 9 116 13 127 68 168 20 15 50 41 66 56 16 16 48 40 70 55 22 14 47 31 54 39 7 7 18 13 23 13 12 0 123 74 181 123 27 21 69 44 95 51 48 13 130 57 188 101 33 24 98 59 132 69 19 6 22 3 25 -25 2 -20 12 -39 29 -51 26 -19 26 -19 60 1 36 22 89 28 89 11 0 -6 -20 -19 -45 -30 -25 -11 -45 -22 -45 -24 0 -3 34 -5 76 -3 63 2 77 -1 85 -15 14 -25 54 -22 72 4 15 23 15 23 30 3 15 -19 16 -19 30 13 16 37 77 83 77 57 0 -8 -6 -15 -12 -15 -7 0 0 -11 16 -25 16 -14 32 -25 36 -25 3 0 29 16 56 35 27 19 59 35 72 35 25 0 117 43 127 60 7 11 45 14 45 3 0 -4 -10 -17 -22 -30 -21 -23 -21 -23 -1 -23 29 0 126 46 148 70 13 14 22 17 30 10 9 -8 25 0 56 26 35 29 48 35 72 30 16 -3 37 -6 47 -6 10 0 20 -9 23 -21 7 -26 32 -20 32 7 0 12 6 18 15 15 36 -9 45 -6 42 14 -2 11 -5 44 -6 73 -3 45 0 54 18 64 11 6 55 46 96 88 41 42 127 120 191 173 280 232 487 537 603 887 66 197 77 281 77 552 0 126 -5 264 -10 306 -5 42 -15 124 -21 182 -15 139 -37 297 -55 395 -11 58 -15 145 -14 320 1 135 -3 260 -9 285 -6 25 -13 74 -17 110 -8 81 -29 173 -62 270 -32 94 -52 176 -53 215 0 17 -12 66 -26 109 -26 84 -27 97 -2 268 8 60 8 85 -2 108 -17 40 4 157 29 164 54 15 80 15 115 1 99 -41 193 29 260 195 14 35 26 73 26 86 0 20 39 80 40 61 0 -5 13 1 29 12 37 27 93 27 151 0 60 -27 189 -61 201 -53 15 9 1 99 -22 153 -11 24 -44 72 -74 107 -56 63 -176 279 -189 340 -4 17 -18 46 -32 65 -15 20 -24 47 -24 68 0 48 -10 61 -45 58 l-30 -2 -5 70 c-4 56 -8 70 -22 73 -10 2 -18 -1 -18 -7 0 -6 -4 -11 -10 -11 -5 0 -10 24 -10 53 0 28 -4 58 -9 66 -11 18 -31 5 -31 -19 0 -26 -21 -70 -33 -70 -5 0 -6 10 -2 23 14 45 18 164 6 185 -18 33 -25 27 -38 -29 -14 -56 -58 -123 -74 -113 -7 4 -9 46 -7 107 4 120 -9 136 -45 55z" fill="#6be6ff" stroke="#ffb000" stroke-width="100" stroke-linejoin="round"/></g></svg>