<svg xmlns="http://www.w3.org/2000/svg" viewBox="0 0 809.000000 308.000000" width="809" height="308"><g transform="translate(0.000000,308.000000) scale(0.100000,-0.100000)"><path d="M4681 2764 c-18 -21 -28 -24 -49 -19 -15 4 -31 7 -37 6 -5 -1 -31 -3 -56 -4 -25 -1 -53 -8 -62 -15 -9 -8 -25 -10 -41 -6 -19 4 -33 1 -47 -12 -13 -12 -33 -17 -59 -16 -22 2 -40 -1 -40 -6 0 -6 -12 -12 -27 -15 -16 -3 -50 -10 -78 -16 -75 -14 -114 -31 -126 -52 -6 -12 -21 -19 -37 -19 -15 -1 -53 -3 -84 -6 -48 -5 -65 -2 -108 20 -28 14 -59 26 -69 26 -9 0 -44 7 -76 16 -49 12 -68 13 -102 3 -24 -6 -43 -16 -43 -21 0 -22 -78 -40 -185 -43 -60 -2 -126 -8 -145 -14 -19 -6 -49 -11 -65 -11 -28 0 -70 -23 -141 -75 -22 -17 -178 -47 -254 -49 -40 -2 -50 -7 -90 -50 -41 -43 -54 -50 -124 -66 -43 -11 -86 -26 -95 -34 -9 -8 -45 -24 -80 -35 -35 -11 -69 -25 -75 -30 -6 -5 -31 -12 -55 -16 -33 -5 -47 -14 -59 -35 -10 -18 -30 -32 -54 -39 -33 -10 -108 -83 -108 -105 0 -4 -16 -20 -35 -37 -19 -17 -35 -39 -35 -49 0 -10 -24 -41 -53 -69 -30 -28 -60 -62 -67 -75 -7 -14 -20 -26 -30 -29 -9 -2 -129 1 -266 8 -280 14 -318 22 -474 101 -49 25 -105 48 -124 51 l-34 5 15 -43 c20 -59 12 -140 -20 -188 -13 -20 -27 -47 -30 -61 -12 -50 -29 -61 -107 -71 -41 -5 -105 -17 -142 -25 -38 -9 -75 -13 -84 -10 -15 6 -15 8 2 27 l19 21 -50 -7 c-66 -10 -87 -22 -80 -44 8 -28 -3 -48 -40 -70 -67 -39 -132 -221 -80 -221 8 0 23 -13 34 -29 42 -59 73 -69 201 -66 94 2 129 -2 195 -20 83 -23 203 -32 568 -41 142 -4 174 -7 207 -24 21 -11 42 -30 46 -42 11 -35 37 -67 54 -67 8 0 24 6 34 14 11 8 28 15 37 15 10 0 21 12 28 30 8 24 16 30 40 30 24 0 34 -7 46 -30 20 -39 49 -53 95 -46 24 4 56 -1 91 -13 50 -16 57 -23 90 -81 44 -78 114 -140 166 -147 29 -4 50 2 87 21 27 14 55 26 63 26 7 0 28 -15 47 -33 18 -17 61 -43 97 -56 35 -14 82 -35 104 -47 22 -12 56 -25 75 -28 19 -3 53 -21 76 -39 22 -17 65 -43 95 -56 30 -13 63 -28 74 -34 11 -6 50 -25 88 -44 37 -18 67 -38 67 -43 0 -6 8 -10 19 -10 10 0 30 -10 45 -21 15 -12 30 -19 33 -15 4 3 14 0 22 -8 18 -16 129 -32 286 -41 96 -6 102 -5 149 22 39 22 56 41 83 93 75 140 140 172 219 109 114 -92 190 -125 373 -165 170 -38 335 -48 405 -24 20 6 47 9 59 6 12 -4 56 -9 99 -12 64 -5 84 -2 125 16 l48 21 17 -20 c18 -23 44 -28 51 -8 3 9 12 8 35 -6 50 -28 92 -17 92 24 0 22 86 49 153 49 56 0 174 48 242 100 84 62 98 70 130 70 37 0 76 25 69 45 -8 19 27 35 73 35 65 0 216 53 254 88 19 18 43 32 54 32 12 0 52 20 89 45 38 25 73 45 78 45 22 0 78 33 78 46 0 19 53 44 95 44 20 0 53 9 73 19 44 22 116 97 127 131 15 47 68 121 97 136 29 15 30 15 23 -8 -4 -13 -15 -32 -25 -43 -10 -11 -27 -39 -39 -62 -11 -22 -26 -43 -33 -46 -11 -4 -11 -6 0 -6 10 -1 10 -6 2 -21 -8 -14 -8 -20 0 -20 14 0 153 138 169 167 17 33 83 63 135 63 47 0 83 12 127 41 14 10 45 25 70 34 104 40 145 58 164 75 11 10 74 36 139 59 118 39 136 50 136 83 0 31 21 64 51 82 48 28 40 61 -23 92 -36 18 -61 39 -78 66 -26 42 -152 148 -175 148 -17 0 -39 -22 -62 -60 l-17 -29 -115 5 c-95 4 -126 9 -170 29 -29 14 -62 25 -72 25 -11 0 -27 4 -37 9 -9 5 -33 16 -53 24 -20 9 -52 29 -70 44 -19 16 -63 40 -99 53 -62 22 -88 37 -225 130 -33 22 -74 44 -92 49 -17 5 -64 30 -104 56 -41 26 -100 56 -132 67 -105 34 -237 113 -304 181 -49 49 -81 71 -145 99 -112 49 -315 96 -469 108 -73 5 -154 18 -195 31 -55 17 -85 20 -148 16 -43 -3 -91 -1 -107 5 -21 7 -33 7 -43 -1 -7 -6 -15 -9 -17 -7 -2 2 -34 6 -70 10 -62 6 -66 5 -88 -20z" fill="#6be6ff" stroke="#ffb000" stroke-width="100" stroke-linejoin="round"/></g></svg>