<svg xmlns="http://www.w3.org/2000/svg" viewBox="0 0 597.000000 208.000000" width="597" height="208"><g transform="translate(0.000000,208.000000) scale(0.100000,-0.100000)"><path d="M2385 1950 c-121 -4 -242 -10 -270 -13 -27 -4 -104 -12 -170 -18 -188 -18 -338 -57 -490 -129 -157 -74 -430 -211 -580 -290 l-110 -58 -190 -16 c-200 -17 -285 -32 -297 -50 -4 -6 -8 -24 -8 -41 0 -16 -7 -43 -16 -60 -22 -41 -30 -173 -14 -240 18 -73 3 -114 -51 -139 -22 -10 -47 -30 -57 -43 -29 -46 -13 -179 35 -291 8 -18 12 -36 9 -41 -7 -11 33 -47 64 -56 14 -4 36 -16 49 -26 13 -11 32 -19 42 -19 11 0 19 -7 19 -16 0 -14 7 -15 47 -8 52 8 67 8 158 1 33 -3 98 -9 143 -13 83 -6 84 -7 110 -45 33 -47 50 -49 54 -6 3 28 7 32 34 35 27 3 33 -1 39 -25 13 -55 67 -158 98 -191 75 -78 187 -117 311 -109 168 10 261 62 343 192 39 61 74 95 100 95 22 0 23 4 23 64 0 68 14 92 35 62 11 -14 14 -14 24 -2 15 18 91 18 84 0 -2 -7 6 -18 19 -25 22 -12 22 -11 8 6 -14 17 -13 18 5 10 42 -18 206 -22 665 -16 261 3 617 4 790 3 173 -1 423 -2 555 -2 132 0 246 -4 253 -8 8 -5 16 -28 19 -51 5 -38 11 -45 72 -86 36 -25 82 -61 101 -81 124 -129 431 -144 568 -29 33 27 86 104 109 157 10 23 19 27 70 32 32 4 72 11 88 18 17 6 116 21 220 33 263 32 285 42 285 132 0 51 1 53 26 53 l26 0 -7 78 c-10 116 -20 149 -56 190 -19 21 -54 71 -79 112 -72 120 -118 158 -242 207 -126 50 -282 92 -468 127 -182 34 -390 66 -432 66 -19 0 -38 4 -44 9 -13 14 -93 34 -133 33 -21 0 -62 14 -110 40 -141 76 -575 293 -681 342 -58 26 -141 59 -185 72 -208 63 -548 88 -1010 74z" fill="#57ff8f" stroke="#ffb000" stroke-width="100" stroke-linejoin="round"/></g></svg>