<svg xmlns="http://www.w3.org/2000/svg" viewBox="0 0 573.000000 266.000000" width="573" height="266"><g transform="translate(0.000000,266.000000) scale(0.100000,-0.100000)"><path d="M3640 2543 c0 -10 7 -43 15 -73 8 -30 15 -61 15 -69 0 -12 -206 -13 -1357 -10 l-1358 4 -165 -28 c-175 -30 -325 -77 -393 -124 -84 -58 -133 -147 -176 -320 -46 -184 -54 -298 -48 -665 5 -335 13 -402 62 -573 67 -230 171 -309 478 -364 220 -40 274 -41 1636 -34 l1321 6 0 -21 c0 -11 -4 -31 -9 -44 -4 -13 -11 -44 -15 -70 -7 -46 -6 -48 18 -48 38 0 81 44 111 113 l28 64 586 -1 c585 -1 586 -1 681 23 96 24 238 88 319 143 32 22 50 46 68 87 13 31 33 73 44 93 21 39 42 144 59 293 5 50 18 113 29 140 50 132 53 360 6 520 -15 50 -31 131 -36 180 -14 119 -35 221 -58 270 -10 22 -30 66 -44 97 -28 62 -60 88 -202 161 -202 104 -452 122 -1277 91 l-167 -7 -37 75 c-38 76 -71 108 -113 108 -13 0 -21 -6 -21 -17z" fill="#57ff8f" stroke="#ffb000" stroke-width="100" stroke-linejoin="round"/></g></svg>