<svg xmlns="http://www.w3.org/2000/svg" viewBox="0 0 251.000000 492.000000" width="251" height="492"><g transform="translate(0.000000,492.000000) scale(0.100000,-0.100000)"><path d="M1151 4849 c-19 -13 -43 -41 -54 -62 -18 -36 -19 -47 -10 -135 12 -112 10 -115 -57 -108 -131 13 -598 -57 -690 -104 -42 -21 -60 -60 -60 -130 0 -35 -1 -35 -67 -55 -41 -11 -79 -29 -95 -45 l-26 -27 0 -359 c0 -197 4 -366 9 -376 21 -38 123 -52 562 -75 l337 -17 16 -25 c9 -15 27 -38 41 -52 l24 -26 -3 -779 -3 -779 -43 -52 -43 -51 -157 -6 c-257 -10 -521 -27 -617 -41 -68 -10 -94 -19 -106 -34 -15 -19 -17 -60 -17 -382 l0 -362 26 -27 c17 -17 52 -33 95 -45 67 -18 67 -18 67 -54 0 -20 5 -53 11 -74 16 -60 57 -76 299 -117 85 -15 128 -27 136 -38 11 -15 31 -17 146 -14 73 1 146 5 162 9 48 10 56 -13 56 -153 0 -145 5 -156 95 -178 52 -13 68 -13 119 -2 87 21 90 25 94 175 l4 130 32 7 c17 4 97 7 178 5 139 -2 147 -1 161 19 12 18 37 26 129 41 270 46 298 63 298 178 0 45 2 49 28 54 15 3 54 15 86 27 78 30 91 59 81 185 -4 50 -6 106 -4 125 3 45 3 162 0 220 -1 25 1 81 5 124 11 133 -7 164 -106 180 -84 14 -392 35 -592 42 l-217 7 -41 48 -40 48 0 786 0 786 41 48 42 48 201 7 c352 12 637 40 686 66 26 14 34 65 26 163 -4 45 -6 93 -5 107 3 32 3 196 1 235 -1 17 1 75 4 130 7 135 -4 154 -113 188 l-78 25 -5 59 c-5 64 -18 86 -59 108 -29 14 -204 51 -294 61 -32 4 -65 13 -73 21 -8 9 -22 12 -34 8 -12 -4 -27 -1 -35 5 -10 8 -54 11 -132 10 -141 -3 -154 -2 -160 3 -4 5 -21 151 -28 237 -4 58 -20 67 -120 76 -73 5 -83 4 -114 -17z" fill="#6b5252" stroke="#ffb000" stroke-width="100" stroke-linejoin="round"/></g></svg>