<svg xmlns="http://www.w3.org/2000/svg" viewBox="0 0 492.000000 251.000000" width="492" height="251"><g transform="translate(0.000000,251.000000) scale(0.100000,-0.100000)"><path d="M740 2392 c-17 -17 -33 -52 -45 -94 -18 -68 -18 -68 -54 -68 -20 0 -53 -5 -74 -11 -60 -16 -76 -57 -117 -299 -15 -85 -27 -128 -38 -136 -15 -11 -17 -31 -14 -146 1 -73 5 -146 9 -162 10 -48 -13 -56 -153 -56 -145 0 -156 -5 -178 -95 -13 -52 -13 -68 -2 -119 21 -87 25 -90 175 -94 l130 -4 7 -32 c4 -17 7 -97 5 -178 -2 -139 -1 -147 19 -161 18 -12 26 -37 41 -129 46 -270 63 -298 178 -298 45 0 49 -2 54 -28 3 -15 15 -54 27 -86 30 -78 59 -91 185 -81 50 4 106 6 125 4 45 -3 162 -3 220 0 25 1 81 -1 124 -5 133 -11 164 7 180 106 14 84 35 392 42 592 l7 217 48 41 48 40 786 0 786 0 48 -41 48 -42 7 -201 c12 -352 40 -637 66 -686 14 -26 65 -34 163 -26 45 4 93 6 107 5 32 -3 196 -3 235 -1 17 1 75 -1 130 -4 135 -7 154 4 188 113 l25 78 59 5 c64 5 86 18 108 59 14 29 51 204 61 294 4 32 13 65 21 73 9 8 12 22 8 34 -4 12 -1 27 5 35 8 10 11 54 10 132 -3 141 -2 154 3 160 5 4 151 21 237 28 58 4 67 20 76 120 5 73 4 83 -17 114 -13 19 -41 43 -62 54 -36 18 -47 19 -135 10 -112 -12 -115 -10 -108 57 13 131 -57 598 -104 690 -21 42 -60 60 -130 60 -35 0 -35 1 -55 68 -11 40 -29 78 -45 94 l-27 26 -359 0 c-197 0 -366 -4 -376 -9 -38 -21 -52 -123 -75 -562 l-17 -337 -25 -16 c-15 -9 -38 -27 -52 -41 l-26 -24 -779 3 -779 3 -52 43 -51 43 -6 157 c-10 257 -27 521 -41 617 -10 68 -19 94 -34 106 -19 15 -60 17 -382 17 l-362 0 -27 -26z" fill="#6b5252" stroke="#ffb000" stroke-width="100" stroke-linejoin="round"/></g></svg>