<svg xmlns="http://www.w3.org/2000/svg" viewBox="0 0 277.000000 143.000000" width="277" height="143"><g transform="translate(0.000000,143.000000) scale(0.100000,-0.100000)"><path d="M1523 1378 c10 -102 46 -237 82 -307 35 -70 45 -121 24 -121 -6 0 -32 15 -58 34 -66 48 -113 70 -226 104 -211 64 -293 67 -477 16 -111 -31 -139 -35 -192 -30 -85 9 -234 -8 -294 -34 -27 -12 -63 -36 -80 -53 -31 -31 -62 -102 -62 -138 0 -27 -31 -39 -103 -39 -53 0 -67 -4 -85 -23 -27 -29 -28 -77 -3 -108 16 -20 30 -24 78 -27 125 -5 111 7 115 -92 2 -71 7 -92 23 -110 30 -34 98 -61 178 -70 40 -5 94 -13 120 -19 39 -9 56 -8 84 4 52 22 97 19 219 -16 140 -40 209 -45 304 -24 135 29 136 29 171 5 47 -34 118 -38 158 -9 18 13 31 32 31 44 0 16 13 27 51 44 27 13 52 21 55 18 2 -2 0 -17 -6 -32 -15 -41 -44 -213 -45 -267 0 -26 5 -52 12 -59 18 -18 103 157 139 288 8 29 26 72 40 97 22 39 30 46 57 46 21 1 45 12 67 30 22 19 45 30 65 30 17 0 41 7 53 16 19 13 28 14 53 4 72 -30 211 14 282 88 42 43 15 51 -33 9 -22 -18 -57 -40 -79 -47 -46 -15 -109 -6 -118 17 -8 20 17 40 115 96 40 23 137 83 216 134 78 50 154 97 168 104 29 13 54 52 44 68 -8 13 -58 15 -71 2 -6 -4 -64 -36 -130 -71 -66 -34 -125 -67 -131 -72 -22 -17 -138 -58 -165 -58 -15 0 -37 11 -54 27 l-27 28 38 32 c39 34 36 34 198 37 16 1 31 7 33 14 4 9 -25 12 -123 12 -122 0 -130 -1 -166 -26 l-37 -26 -27 21 c-22 18 -35 20 -74 15 -41 -5 -55 -2 -96 22 -54 32 -128 102 -148 143 -8 14 -21 54 -30 88 -27 106 -82 193 -122 193 -14 0 -16 -8 -11 -52z" fill="#5c6e84" stroke="#ffb000" stroke-width="40" stroke-linejoin="round"/></g></svg>