<svg xmlns="http://www.w3.org/2000/svg" viewBox="0 0 513.000000 364.000000" width="513" height="364"><g transform="translate(0.000000,364.000000) scale(0.100000,-0.100000)"><path d="M2830 3553 c-14 -2 -59 -15 -100 -28 -75 -23 -260 -64 -485 -106 -182 -35 -362 -32 -563 10 -174 35 -272 39 -408 16 -181 -31 -296 -76 -480 -188 -284 -170 -483 -417 -588 -729 l-37 -106 -2 -545 -2 -545 -23 -31 c-33 -46 -44 -79 -43 -145 0 -76 46 -176 73 -160 4 3 5 -17 1 -43 -6 -47 -6 -48 14 -30 11 10 28 35 38 57 20 43 38 54 31 18 -3 -13 -13 -70 -22 -128 -9 -58 -32 -154 -51 -215 -26 -83 -35 -131 -37 -195 -2 -60 -8 -95 -21 -120 -11 -19 -21 -60 -23 -91 -4 -51 -1 -59 25 -89 l29 -33 190 -4 c104 -2 209 -1 234 4 44 8 45 10 48 49 2 30 -3 48 -22 74 -58 79 -71 118 -75 235 -6 175 42 426 104 544 37 69 90 141 105 141 8 0 24 -47 49 -150 23 -92 32 -190 29 -345 -1 -111 2 -173 12 -203 11 -35 11 -49 0 -81 -18 -56 -8 -121 24 -147 34 -30 190 -40 362 -25 129 11 154 20 154 51 0 29 -27 84 -51 105 -45 41 -98 117 -119 171 -38 103 -72 334 -68 464 4 103 7 122 34 180 17 36 48 87 68 113 20 27 44 64 53 83 16 33 18 34 78 34 33 0 87 7 118 15 32 8 144 24 250 35 215 22 309 45 538 135 126 50 253 84 265 73 2 -3 16 -51 29 -108 14 -56 33 -114 43 -129 76 -110 108 -375 126 -1037 1 -44 -4 -59 -41 -114 -52 -77 -59 -135 -20 -174 21 -21 37 -25 133 -31 127 -9 317 -1 357 14 24 9 27 16 27 55 0 43 2 46 32 54 41 10 52 30 44 76 -7 39 -25 61 -84 107 -58 45 -71 135 -32 224 9 21 13 54 30 270 5 72 24 234 41 360 27 200 31 257 30 439 -2 198 0 212 23 285 14 42 30 95 36 119 6 23 16 42 22 42 5 0 28 19 49 42 l39 43 67 -34 c65 -32 175 -71 201 -71 30 0 52 39 52 95 0 52 1 55 25 55 14 0 48 -11 75 -25 26 -13 68 -27 92 -31 24 -3 63 -18 88 -33 25 -14 56 -32 70 -39 14 -7 36 -19 50 -27 29 -17 56 -19 65 -5 12 20 26 9 47 -37 22 -51 29 -84 52 -263 14 -106 18 -167 32 -460 2 -58 7 -133 10 -167 12 -123 15 -169 15 -197 0 -16 4 -35 10 -42 6 -7 8 -22 4 -33 -3 -11 -2 -28 4 -38 18 -35 53 -302 49 -379 -4 -81 1 -72 -75 -135 -20 -15 -16 -28 12 -41 20 -9 25 -18 25 -50 0 -42 7 -45 48 -24 41 21 68 55 101 126 47 102 53 168 45 505 -6 270 1 490 22 670 2 22 7 65 10 95 3 30 7 56 9 59 2 2 39 -15 82 -37 93 -48 200 -82 256 -82 55 0 40 12 -62 50 -97 35 -199 90 -227 122 -19 21 -19 21 6 13 131 -40 252 -65 304 -63 83 4 82 23 -1 42 -130 29 -274 89 -312 129 -19 22 -23 40 -32 178 -5 85 -17 186 -25 224 -15 67 -25 101 -95 315 -16 52 -46 147 -65 209 -19 63 -38 120 -43 125 -4 6 -25 54 -46 106 -78 194 -161 342 -206 365 -59 31 -220 66 -389 85 -96 11 -213 27 -260 35 -47 9 -112 21 -145 26 -34 6 -114 9 -185 5 -87 -3 -150 -1 -205 9 -81 15 -100 16 -145 8z" fill="#5c6e84" stroke="#ffb000" stroke-width="100" stroke-linejoin="round"/></g></svg>