<svg xmlns="http://www.w3.org/2000/svg" viewBox="0 0 1556.000000 671.000000" width="1556" height="671"><g transform="translate(0.000000,671.000000) scale(0.100000,-0.100000)"><path d="M14625 6584 c-114 -17 -165 -28 -240 -49 -33 -10 -71 -20 -84 -23 -36 -8 -156 -79 -154 -91 2 -5 -13 -14 -32 -20 -18 -5 -40 -14 -47 -20 -106 -86 -158 -136 -158 -149 0 -10 -11 -30 -25 -46 -14 -16 -25 -37 -25 -47 0 -10 -11 -34 -24 -54 -13 -19 -27 -54 -31 -78 -4 -23 -13 -49 -20 -57 -7 -8 -13 -31 -13 -51 0 -22 -11 -54 -31 -86 -17 -27 -33 -65 -36 -84 -11 -66 -30 -115 -80 -212 -154 -298 -405 -539 -666 -640 -195 -75 -484 -161 -513 -152 -32 10 -196 14 -191 5 8 -13 -79 -13 -225 1 -63 6 -146 12 -185 13 -68 2 -201 19 -279 36 -25 6 -45 5 -56 -2 -13 -9 -47 -8 -126 0 -60 7 -134 12 -164 12 -30 0 -103 9 -162 19 -100 18 -154 17 -187 -3 -6 -4 -28 -2 -48 3 -21 6 -117 12 -213 15 -159 4 -231 11 -345 36 -24 5 -44 5 -51 -1 -11 -9 -341 18 -501 41 -44 6 -88 7 -111 1 -47 -10 -280 3 -356 20 -30 6 -70 8 -92 4 -21 -4 -61 -6 -89 -5 -100 5 -371 -6 -386 -16 -6 -3 -88 -8 -182 -10 -95 -2 -199 -9 -232 -14 -72 -13 -224 -28 -395 -40 -69 -4 -147 -13 -175 -18 -27 -6 -77 -11 -110 -12 -33 0 -82 -7 -110 -15 -32 -10 -94 -16 -175 -17 -100 0 -133 -4 -164 -19 -25 -12 -62 -19 -100 -19 -34 0 -79 -7 -101 -15 -22 -8 -61 -14 -86 -15 -25 0 -54 -7 -65 -15 -10 -8 -28 -15 -40 -15 -11 0 -25 -5 -30 -10 -6 -6 -45 -17 -87 -25 -43 -8 -97 -23 -120 -34 -38 -17 -121 -31 -202 -35 -18 0 -29 -6 -28 -13 2 -7 -12 -15 -30 -17 -59 -10 -152 -28 -192 -37 -22 -5 -67 -14 -100 -18 -33 -5 -85 -16 -115 -25 -30 -9 -66 -16 -81 -16 -14 0 -30 -5 -36 -11 -11 -11 -45 -21 -158 -45 -38 -9 -92 -22 -120 -30 -109 -30 -487 -102 -710 -135 -259 -37 -676 -51 -947 -29 -535 42 -614 45 -1033 45 -252 0 -511 -5 -625 -13 -107 -7 -278 -15 -380 -16 -108 -2 -197 -8 -213 -15 -16 -6 -59 -11 -96 -11 -39 0 -72 -5 -79 -12 -7 -7 -54 -18 -105 -24 -100 -13 -251 -48 -279 -64 -10 -5 -28 -10 -40 -10 -44 0 -283 -64 -307 -82 -13 -10 -29 -18 -36 -18 -7 0 -33 -11 -59 -25 -25 -13 -72 -32 -104 -41 -119 -34 -252 -91 -252 -107 0 -6 -7 -18 -15 -27 -12 -13 -13 -23 -6 -44 11 -28 25 -32 66 -16 14 5 56 15 93 20 37 6 98 22 137 35 38 12 97 25 130 28 37 4 84 17 121 36 35 17 94 34 135 41 41 6 97 15 124 20 28 6 75 14 106 19 32 5 66 14 77 20 35 18 149 11 163 -11 4 -6 23 -2 45 7 66 28 135 36 162 18 21 -13 33 -13 109 2 46 9 87 14 90 11 3 -3 0 -13 -8 -22 -13 -16 -11 -17 26 -10 22 3 80 11 128 17 78 9 92 8 114 -7 23 -15 34 -15 95 -4 37 6 85 9 105 6 21 -3 113 -8 205 -11 92 -3 194 -10 225 -15 32 -6 80 -10 107 -10 27 0 63 -4 80 -9 17 -5 90 -15 161 -21 220 -19 265 -26 278 -44 10 -13 43 -19 167 -27 161 -12 200 -23 200 -58 0 -23 29 -31 89 -24 29 3 67 -1 100 -11 30 -9 79 -16 108 -16 33 0 74 -8 104 -21 39 -17 61 -20 101 -16 39 5 56 3 69 -9 18 -17 108 -24 336 -27 78 -2 126 -6 134 -14 8 -8 38 -10 96 -6 64 5 87 3 93 -7 6 -10 23 -11 77 -4 64 9 283 3 458 -11 44 -3 121 -7 172 -8 51 -1 97 -7 103 -13 7 -7 45 -9 110 -6 66 3 100 1 100 -6 0 -6 -6 -13 -12 -16 -7 -3 21 -4 62 -4 100 2 236 -20 285 -45 22 -12 70 -24 108 -27 40 -4 74 -14 85 -24 11 -9 65 -25 123 -36 137 -25 176 -37 183 -55 3 -9 18 -15 36 -15 46 0 96 -25 141 -70 22 -22 44 -40 49 -40 5 0 22 -18 36 -40 14 -22 35 -42 46 -46 11 -3 46 -29 78 -58 31 -28 89 -68 129 -89 42 -22 75 -47 80 -59 10 -28 -8 -89 -29 -95 -64 -20 -209 -103 -219 -126 -7 -17 -105 -133 -133 -157 -15 -14 -28 -35 -28 -47 0 -11 -7 -23 -15 -27 -8 -3 -15 -12 -15 -20 0 -8 -12 -25 -27 -38 -16 -12 -33 -35 -40 -50 -6 -14 -21 -29 -32 -33 -12 -3 -21 -15 -21 -26 0 -12 -10 -23 -27 -30 -16 -6 -49 -32 -75 -59 -25 -27 -81 -69 -125 -93 -108 -61 -246 -127 -267 -127 -9 0 -19 -7 -22 -15 -4 -8 -65 -50 -137 -93 -149 -88 -226 -154 -307 -263 -63 -84 -155 -265 -219 -429 -12 -30 -27 -66 -33 -80 -5 -14 -16 -38 -22 -55 -21 -50 -79 -165 -120 -237 -28 -52 -48 -74 -77 -89 -21 -10 -40 -25 -41 -32 0 -6 -2 -64 -4 -127 -2 -63 -5 -152 -8 -196 -5 -73 -3 -84 15 -105 12 -13 25 -34 30 -46 6 -17 17 -23 37 -23 28 0 62 -26 62 -47 0 -14 39 -48 77 -67 33 -17 148 -20 208 -7 17 4 46 4 65 1 57 -10 63 -3 33 40 -36 51 -54 59 -142 69 -66 7 -76 11 -95 37 -11 16 -29 37 -38 46 -26 26 -25 135 2 185 11 21 24 62 29 90 6 31 20 62 36 79 14 15 28 39 32 53 3 14 17 40 30 57 12 17 23 36 23 43 0 19 37 87 63 114 12 14 33 45 45 70 12 25 29 50 36 56 8 7 20 26 27 44 7 18 30 51 51 74 21 24 38 48 38 54 0 6 14 28 30 49 16 21 30 45 30 53 0 8 7 20 15 27 8 7 15 18 15 25 0 7 16 32 35 55 19 23 35 45 35 48 1 4 23 31 50 61 27 29 59 73 71 97 11 24 37 58 57 75 113 94 597 279 733 279 25 0 68 7 95 15 27 8 63 15 80 15 78 0 450 122 529 173 28 18 76 46 109 62 32 17 82 52 110 79 28 26 73 63 100 81 27 19 66 59 87 91 22 31 56 75 77 98 21 23 61 78 91 122 36 56 64 87 87 98 38 18 84 21 84 6 0 -10 24 -11 143 -10 39 0 67 -4 67 -10 0 -6 32 -10 80 -10 97 0 124 -12 144 -61 8 -20 20 -40 26 -44 5 -3 15 -26 21 -51 6 -25 19 -50 28 -57 17 -12 42 -77 56 -147 4 -19 17 -48 29 -65 19 -27 21 -46 24 -195 2 -91 -1 -302 -6 -469 -6 -193 -6 -316 0 -338 10 -37 74 -107 167 -184 29 -24 59 -49 65 -54 6 -6 29 -24 51 -40 38 -28 74 -58 99 -80 6 -5 29 -23 51 -40 145 -108 445 -394 445 -423 0 -29 41 -57 118 -83 37 -12 87 -34 112 -50 63 -39 186 -93 245 -108 28 -7 61 -22 73 -34 l24 -22 -4 40 c-3 38 -2 40 22 37 14 -2 65 -5 113 -7 64 -2 93 -7 106 -19 10 -9 23 -16 29 -16 17 0 15 45 -3 60 -8 7 -15 18 -15 24 0 18 -61 73 -93 85 -16 6 -47 11 -69 11 -53 0 -112 18 -139 43 -12 11 -48 33 -81 49 -33 16 -78 48 -101 72 -23 24 -55 51 -72 59 -16 8 -41 25 -55 37 -14 12 -41 30 -61 41 -20 10 -55 35 -77 56 -22 21 -73 67 -112 103 -129 116 -266 247 -312 299 -8 9 -36 34 -61 56 -26 22 -47 43 -47 47 0 4 -13 27 -30 51 -16 25 -30 52 -30 62 0 18 -68 125 -79 125 -12 0 -34 76 -27 89 6 9 25 109 45 231 4 25 13 55 19 67 7 12 12 32 12 45 0 13 7 33 15 44 8 10 15 28 15 39 0 11 7 29 15 39 8 11 15 41 15 66 0 51 6 71 55 200 18 47 35 105 39 130 8 50 21 98 42 148 8 18 14 52 14 76 0 24 6 48 14 55 7 6 16 41 19 79 3 37 12 84 20 106 12 35 19 40 69 56 31 9 73 28 93 40 28 17 54 23 107 25 41 1 73 7 77 14 4 6 20 13 36 14 22 1 32 -4 44 -25 15 -26 14 -28 -12 -56 -33 -34 -34 -50 -4 -54 18 -2 24 -13 33 -58 7 -30 20 -82 29 -115 20 -69 20 -63 5 -180 -7 -49 -18 -97 -26 -105 -10 -12 -11 -35 -4 -109 5 -52 6 -107 3 -123 -3 -17 0 -35 8 -44 9 -11 13 -39 12 -78 -1 -38 4 -69 13 -83 8 -12 14 -36 14 -52 0 -17 11 -50 25 -75 14 -25 25 -56 25 -71 0 -14 16 -48 35 -75 19 -27 35 -60 35 -72 0 -28 52 -63 94 -63 24 0 31 -5 38 -30 4 -16 5 -45 2 -62 -5 -26 -3 -33 10 -33 8 0 20 -9 26 -20 6 -12 21 -20 35 -20 18 0 25 -6 25 -18 0 -15 6 -18 28 -14 24 3 34 -4 65 -44 20 -26 37 -53 37 -60 0 -7 9 -18 19 -24 33 -17 61 -12 73 15 15 33 28 32 68 -10 32 -33 60 -45 60 -27 0 5 -7 23 -15 40 -19 38 -18 273 2 279 6 2 33 -24 59 -59 26 -35 52 -65 56 -68 13 -10 48 -131 48 -166 0 -43 14 -43 34 -2 29 58 13 182 -36 283 -42 85 -58 125 -58 146 0 11 -4 28 -10 38 -14 27 -32 153 -36 256 -4 123 -15 174 -88 436 -9 31 -16 66 -16 78 0 12 -4 30 -10 40 -5 10 -14 43 -19 72 -13 73 -30 138 -47 176 -27 60 -23 65 97 121 159 74 310 161 489 280 109 73 167 106 193 110 33 4 43 12 69 53 31 51 75 89 102 89 9 0 18 6 20 13 18 66 29 124 36 187 6 54 18 94 44 144 20 39 40 74 46 80 5 5 10 18 10 28 0 38 63 112 120 142 22 12 84 23 250 46 136 18 214 32 239 42 14 6 64 14 111 18 47 4 117 19 155 32 39 14 97 33 130 43 33 9 91 33 130 52 61 30 129 58 230 96 17 6 46 21 65 34 19 13 41 23 50 23 8 0 40 16 70 35 30 19 62 35 71 35 24 0 90 61 130 121 22 31 49 56 75 68 22 11 45 25 52 33 21 26 72 137 72 158 0 18 15 39 85 113 33 35 64 86 71 114 4 15 13 38 20 52 8 14 14 34 14 43 0 9 4 19 9 22 5 4 17 32 27 64 10 31 31 75 46 96 15 21 28 52 28 68 0 15 14 54 30 85 17 31 30 70 30 87 0 17 6 40 13 51 7 11 19 40 26 65 7 25 19 52 27 61 8 8 17 38 21 65 11 81 61 146 143 183 34 16 66 21 134 21 79 0 99 -4 180 -36 241 -97 403 -197 494 -306 115 -139 118 -141 164 -135 56 7 67 21 42 51 -10 13 -48 62 -83 108 -35 45 -105 125 -155 175 -60 62 -87 96 -80 103 21 21 153 -72 194 -137 40 -65 49 -74 125 -111 49 -25 76 -32 108 -30 40 3 42 4 45 39 2 23 -2 40 -12 49 -9 7 -16 17 -16 23 0 15 -85 95 -170 159 -117 88 -196 164 -262 252 -115 152 -163 189 -308 239 -8 3 -55 -1 -105 -9z" fill="#ff811a" stroke="#ffb000" stroke-width="50" stroke-linejoin="round"/></g></svg>