<svg xmlns="http://www.w3.org/2000/svg" viewBox="0 0 1107.000000 204.000000" width="1107" height="204"><g transform="translate(0.000000,204.000000) scale(0.100000,-0.100000)"><path d="M6250 1815 c-19 -7 -47 -14 -62 -14 -15 -1 -33 -7 -40 -14 -47 -45 -70 -51 -188 -49 -63 1 -140 -2 -170 -7 -85 -14 -282 -58 -310 -69 -14 -5 -43 -15 -65 -21 -22 -7 -69 -23 -105 -36 -36 -12 -85 -29 -110 -36 -25 -7 -68 -25 -95 -40 -56 -31 -185 -73 -255 -84 -25 -4 -50 -11 -56 -16 -6 -5 -78 -16 -160 -24 -145 -15 -227 -26 -329 -46 -86 -17 -158 -29 -210 -35 -27 -4 -55 -11 -62 -16 -7 -5 -26 -7 -42 -3 -16 3 -39 1 -50 -4 -11 -6 -91 -16 -178 -22 -87 -5 -183 -14 -213 -19 -30 -5 -95 -16 -145 -25 -52 -8 -153 -15 -240 -15 -82 -1 -188 -5 -235 -10 -138 -16 -289 -23 -565 -26 -243 -3 -504 -18 -775 -45 -63 -6 -144 -12 -180 -14 -36 -1 -72 -5 -80 -8 -24 -9 -430 -27 -593 -27 -82 0 -178 -4 -215 -10 -37 -5 -114 -14 -172 -20 -201 -21 -256 -47 -146 -70 47 -10 259 -21 374 -20 23 0 42 -3 42 -7 0 -5 79 -8 177 -8 132 0 177 -3 180 -12 3 -7 9 -13 14 -13 6 0 7 5 3 11 -4 8 9 9 47 5 30 -4 133 -7 229 -8 147 -1 160 -2 85 -8 l-90 -6 80 -2 c44 -1 98 -4 120 -7 28 -3 33 -2 15 3 -17 5 -21 10 -12 16 7 4 21 4 32 1 12 -4 49 -8 83 -10 183 -10 260 -19 242 -27 -13 -5 -5 -7 25 -4 53 6 201 -4 196 -13 -2 -3 19 -4 47 -2 28 2 76 -2 107 -9 30 -7 129 -14 220 -15 91 -2 244 -10 340 -19 96 -10 279 -21 405 -25 150 -6 251 -14 290 -24 33 -9 127 -21 209 -27 83 -6 173 -16 200 -21 28 -6 78 -14 111 -19 90 -13 239 -37 335 -55 47 -8 121 -19 165 -25 44 -5 123 -16 176 -24 53 -8 105 -13 116 -10 12 3 31 1 43 -6 12 -6 42 -15 68 -20 81 -15 136 -30 178 -50 22 -11 46 -20 52 -20 7 0 12 -6 12 -12 0 -15 282 -108 400 -133 41 -9 99 -25 130 -35 103 -34 135 -39 285 -44 96 -4 166 -11 193 -20 24 -9 57 -13 75 -10 l32 5 -30 -14 c-33 -15 -27 -21 30 -32 22 -4 46 -12 53 -17 8 -7 16 -8 22 -2 6 6 -4 23 -23 44 -65 69 -60 74 74 86 73 7 134 27 125 43 -3 4 3 23 13 42 10 19 16 40 13 48 -3 10 1 12 19 8 13 -4 30 -7 37 -7 6 0 12 -6 12 -13 0 -7 26 -17 65 -25 36 -7 91 -21 123 -32 61 -21 163 -42 277 -59 74 -10 232 -7 430 10 66 5 167 12 225 15 145 6 209 14 215 25 4 5 12 9 20 9 18 0 115 60 115 71 0 5 6 9 13 9 7 0 20 8 28 17 9 10 41 34 72 53 31 19 56 41 57 48 0 7 13 21 30 30 16 9 30 25 30 35 0 9 7 17 15 17 9 0 12 -6 8 -16 -10 -26 27 -2 61 39 26 31 34 34 62 30 21 -3 47 1 69 11 30 15 130 34 190 38 11 0 65 11 119 24 54 13 103 21 109 17 5 -3 13 0 17 8 5 7 26 14 47 15 21 1 74 7 117 15 61 9 81 10 84 1 2 -7 8 -12 13 -12 6 0 8 4 5 9 -7 11 90 23 164 20 62 -2 280 8 382 17 36 3 72 3 79 -2 18 -11 59 -14 59 -5 0 4 39 7 86 5 55 -1 101 3 126 12 23 8 50 13 62 13 15 -1 13 -3 -9 -9 -26 -7 -23 -8 25 -10 30 -2 62 -3 70 -2 77 7 99 10 111 18 8 5 34 10 59 11 74 2 203 27 239 46 43 21 109 23 117 2 4 -8 11 -15 16 -15 6 0 8 6 5 14 -5 11 4 14 38 13 83 -3 102 57 24 75 -19 5 -41 12 -49 16 -8 5 -42 9 -75 10 -107 3 -249 24 -285 42 -19 10 -50 21 -68 25 -18 3 -38 13 -46 20 -11 12 -29 12 -115 0 -56 -8 -111 -19 -122 -25 -14 -8 -30 -8 -52 -1 -34 11 -217 19 -567 26 -260 4 -369 12 -435 30 -27 7 -95 21 -150 30 -55 9 -118 21 -140 27 -22 5 -98 19 -170 29 -71 11 -138 24 -147 29 -10 6 -24 10 -31 10 -7 0 -31 15 -53 33 -21 17 -57 41 -78 52 -22 11 -41 28 -44 37 -2 10 -12 20 -21 23 -9 3 -32 18 -51 35 -19 16 -40 30 -47 30 -6 0 -35 20 -65 45 -53 46 -139 81 -185 76 -11 -1 -24 3 -28 8 -7 12 -195 13 -195 1 0 -10 -209 0 -240 12 -29 11 -206 24 -305 22 -55 -1 -127 -9 -160 -17 -163 -42 -261 -70 -334 -96 -45 -15 -83 -26 -86 -23 -3 3 -5 16 -5 29 0 13 -7 37 -15 53 -25 48 -51 60 -136 60 -43 0 -84 2 -92 6 -21 8 -9 48 24 80 47 45 36 55 -31 29z m1667 -191 c-3 -3 -12 -4 -19 -1 -8 3 -5 6 6 6 11 1 17 -2 13 -5z m2423 -485 c15 -5 3 -6 -30 -2 -30 3 -59 10 -65 15 -10 10 48 2 95 -13z m-9197 -196 c-7 -2 -21 -2 -30 0 -10 3 -4 5 12 5 17 0 24 -2 18 -5z m9328 -9 c-25 -8 -47 -12 -49 -9 -5 5 56 23 78 23 8 0 -5 -6 -29 -14z m-4280 -663 c-12 -8 -51 -4 -51 5 0 2 15 4 33 4 22 0 28 -3 18 -9z M748 943 c6 -2 18 -2 25 0 6 3 1 5 -13 5 -14 0 -19 -2 -12 -5z M1518 903 c6 -2 18 -2 25 0 6 3 1 5 -13 5 -14 0 -19 -2 -12 -5z M1650 902 c0 -6 8 -10 18 -10 9 1 32 -2 50 -6 21 -5 32 -4 32 3 0 6 -8 11 -19 11 -10 0 -33 3 -50 6 -19 4 -31 2 -31 -4z M10368 893 c6 -2 18 -2 25 0 6 3 1 5 -13 5 -14 0 -19 -2 -12 -5z M1960 876 c0 -2 11 -6 25 -8 13 -3 22 -1 19 3 -5 9 -44 13 -44 5z M9758 873 c7 -3 16 -2 19 1 4 3 -2 6 -13 5 -11 0 -14 -3 -6 -6z M2120 856 c0 -9 30 -14 35 -6 4 6 -3 10 -14 10 -12 0 -21 -2 -21 -4z M6558 373 c7 -3 16 -2 19 1 4 3 -2 6 -13 5 -11 0 -14 -3 -6 -6z M7698 343 c7 -3 16 -2 19 1 4 3 -2 6 -13 5 -11 0 -14 -3 -6 -6z" fill="#ff811a" stroke="#ffb000" stroke-width="50" stroke-linejoin="round"/></g></svg>