<svg xmlns="http://www.w3.org/2000/svg" viewBox="0 0 263.000000 121.000000" width="263" height="121"><g transform="translate(0.000000,121.000000) scale(0.100000,-0.100000)"><path d="M2305 949 c-16 -5 -52 -14 -80 -19 -27 -6 -73 -22 -102 -37 -45 -22 -60 -25 -110 -20 -34 3 -81 18 -113 34 -54 27 -59 28 -215 28 -116 -1 -181 -6 -236 -18 -71 -17 -83 -17 -185 -2 -60 9 -127 20 -149 25 -191 44 -381 -46 -462 -219 -25 -54 -34 -62 -86 -87 -67 -32 -133 -98 -201 -202 -63 -95 -135 -167 -183 -182 -57 -18 -98 -46 -111 -75 -16 -34 -15 -40 4 -59 36 -36 172 -3 258 62 28 20 84 77 125 126 54 64 87 94 119 109 42 18 46 18 54 3 21 -37 76 -91 123 -121 141 -89 293 -102 485 -41 112 36 128 37 272 16 231 -34 295 -27 471 52 l88 39 33 -20 c67 -42 309 -62 342 -29 16 16 16 20 1 59 l-16 42 29 36 c17 19 30 41 30 48 0 7 13 27 29 45 60 70 64 112 15 172 -62 76 -94 138 -94 180 0 23 -5 47 -12 54 -14 14 -80 14 -123 1z" fill="#9257ff" stroke="#ffb000" stroke-width="70" stroke-linejoin="round"/></g></svg>