<svg xmlns="http://www.w3.org/2000/svg" viewBox="0 0 493.000000 460.000000" width="493" height="460"><g transform="translate(0.000000,460.000000) scale(0.100000,-0.100000)"><path d="M609 4459 c-41 -15 -53 -84 -21 -118 36 -40 41 -50 62 -112 18 -57 20 -80 15 -199 -3 -74 -8 -144 -11 -155 -8 -28 -47 -128 -55 -140 -3 -5 -14 -36 -24 -67 -10 -32 -21 -58 -25 -58 -15 0 -39 -78 -45 -145 -4 -38 -9 -90 -11 -115 -14 -131 -13 -279 2 -360 9 -47 16 -93 16 -102 -1 -10 6 -18 14 -18 11 0 14 -14 12 -67 -1 -47 4 -78 16 -101 9 -18 14 -36 12 -41 -3 -5 0 -14 8 -20 9 -7 12 -27 10 -56 -3 -34 0 -45 11 -45 17 0 21 -45 5 -55 -18 -11 -50 -83 -50 -113 0 -15 -4 -32 -9 -38 -9 -9 -24 -199 -21 -277 0 -21 -3 -43 -7 -50 -12 -19 -14 -47 -3 -47 6 0 6 -10 -1 -27 -13 -34 -1 -112 21 -140 13 -17 17 -42 18 -103 0 -80 -1 -83 -39 -135 -22 -29 -55 -61 -74 -71 -19 -10 -35 -22 -35 -25 0 -4 -11 -10 -25 -13 -15 -4 -55 -36 -90 -73 -50 -52 -65 -75 -71 -107 -3 -23 -9 -45 -12 -50 -2 -5 -7 -38 -9 -75 -5 -85 -41 -319 -53 -342 -5 -9 -12 -36 -15 -58 -3 -23 -9 -51 -15 -61 -5 -10 -7 -26 -4 -34 3 -9 2 -16 -4 -16 -6 0 -11 -23 -11 -52 0 -29 0 -73 -1 -98 -3 -67 17 -171 38 -200 33 -45 97 -70 182 -70 l76 0 17 35 c23 48 21 75 -6 107 -16 20 -36 30 -72 36 l-50 8 2 74 c1 40 7 78 13 84 5 5 10 20 10 32 0 12 7 24 14 27 19 8 44 91 52 175 4 36 13 77 21 91 7 14 13 34 13 44 0 40 27 12 49 -50 13 -38 37 -96 52 -130 16 -34 29 -65 29 -68 0 -3 17 -32 37 -63 20 -31 53 -88 73 -127 72 -138 86 -160 136 -214 l51 -55 89 -8 c133 -11 213 -1 247 31 29 28 34 59 16 94 -31 58 -78 81 -169 82 -42 0 -46 3 -78 50 -68 103 -102 188 -109 272 -6 77 -5 80 24 114 16 19 34 46 41 62 6 15 23 32 37 39 14 6 25 17 25 23 0 7 21 23 46 36 28 14 57 40 73 64 14 22 28 42 31 45 3 3 20 28 37 55 48 75 110 132 180 166 63 30 64 30 143 18 44 -6 80 -14 80 -18 0 -3 26 -7 57 -8 96 -2 246 -14 254 -19 4 -2 10 0 14 6 4 6 12 7 18 3 22 -14 112 -42 135 -43 13 0 31 -4 41 -10 10 -5 53 -12 96 -15 42 -3 87 -12 99 -19 11 -7 32 -12 46 -10 14 1 31 -3 39 -10 9 -7 57 -11 125 -11 l110 0 7 -32 c3 -17 1 -47 -6 -66 -6 -19 -18 -77 -25 -128 -7 -52 -19 -106 -26 -120 -7 -15 -18 -57 -24 -94 -6 -38 -20 -79 -30 -93 -11 -13 -20 -40 -20 -58 0 -18 -4 -36 -10 -39 -14 -8 -13 -41 2 -64 9 -15 9 -32 0 -73 -8 -36 -9 -66 -2 -93 5 -22 10 -57 10 -78 0 -53 14 -74 58 -87 42 -11 241 -14 258 -2 6 4 19 21 29 39 19 32 19 32 -9 86 -27 55 -50 74 -96 79 -30 4 -34 21 -25 94 4 37 17 69 39 101 18 27 38 65 45 85 7 20 25 55 42 77 16 23 29 47 29 55 0 7 6 19 14 25 7 6 16 25 19 40 4 16 15 38 25 48 11 10 25 28 31 41 13 25 31 47 72 90 15 15 32 37 38 49 6 13 20 23 31 23 19 0 70 19 80 30 25 27 65 41 102 35 47 -8 104 -30 112 -44 3 -4 37 -28 76 -51 38 -23 70 -49 70 -56 0 -8 4 -14 8 -14 20 0 133 -93 159 -132 17 -24 35 -42 41 -41 6 2 14 -7 17 -18 13 -39 122 -150 264 -269 121 -100 151 -129 211 -204 25 -30 52 -56 61 -56 9 0 35 -21 59 -47 23 -27 51 -58 61 -70 11 -12 41 -33 66 -48 43 -23 56 -25 180 -26 134 -1 135 -1 164 27 32 30 37 65 14 84 -8 7 -15 19 -15 27 0 7 -8 16 -17 20 -10 3 -28 15 -41 27 -17 15 -38 21 -85 22 -34 1 -65 2 -68 3 -4 1 -40 36 -82 79 -90 92 -155 181 -203 279 -20 40 -40 73 -45 73 -5 0 -15 15 -23 32 -7 18 -25 44 -40 57 -14 14 -26 31 -26 38 0 8 -7 16 -15 19 -8 4 -15 15 -15 26 0 11 -13 32 -29 47 -15 14 -36 42 -46 61 -9 19 -23 42 -29 50 -16 20 -46 115 -46 146 0 14 -7 41 -15 61 -8 19 -15 52 -15 72 -1 37 -20 127 -38 171 -5 14 -10 59 -11 100 -1 41 -6 91 -13 111 -9 32 -8 44 11 81 11 24 21 50 21 57 0 7 9 25 19 40 11 15 23 44 27 66 4 22 12 45 18 51 12 13 18 22 75 109 42 65 67 89 100 100 12 3 21 11 21 16 0 5 6 9 14 9 8 0 32 15 55 34 33 28 52 35 103 41 35 4 77 14 93 23 17 9 35 15 41 14 7 -1 26 14 43 33 22 26 31 46 31 71 0 19 5 44 10 55 6 10 12 50 15 88 l4 70 -39 33 c-21 18 -64 51 -96 73 -31 22 -82 64 -112 93 -41 39 -71 57 -111 68 -61 18 -198 23 -282 11 -55 -9 -55 -9 -92 28 -20 20 -37 43 -37 50 0 19 -50 76 -61 69 -5 -3 -9 0 -9 6 0 7 -12 10 -27 8 -39 -4 -57 -49 -76 -191 -19 -135 -27 -156 -100 -252 -30 -39 -69 -97 -87 -130 -18 -33 -49 -75 -69 -94 -40 -38 -148 -91 -183 -91 -13 0 -47 -9 -75 -19 -42 -15 -60 -17 -90 -9 -103 26 -411 78 -463 78 -42 -1 -153 16 -195 30 -16 5 -68 14 -115 21 -47 6 -137 22 -201 35 -126 27 -181 36 -339 59 -58 9 -136 23 -175 31 -129 29 -170 35 -270 43 -55 5 -107 11 -115 14 -8 3 -31 8 -50 11 -90 12 -141 31 -174 66 -19 19 -65 96 -104 170 -57 111 -72 151 -86 225 -20 115 -21 246 0 315 9 29 20 76 25 104 6 28 13 65 16 81 3 17 10 35 15 42 5 7 7 16 4 21 -3 5 2 21 10 36 15 30 38 201 29 216 -3 5 0 31 6 60 8 39 8 66 -2 113 -7 34 -12 86 -11 116 2 56 4 51 -72 146 -57 71 -73 85 -101 90 -16 2 -42 0 -56 -6z" fill="#9257ff" stroke="#ffb000" stroke-width="70" stroke-linejoin="round"/></g></svg>