<svg xmlns="http://www.w3.org/2000/svg" viewBox="0 0 44.000000 62.000000" width="44" height="62"><g transform="translate(0.000000,62.000000) scale(0.100000,-0.100000)"><path d="M129 555 c-25 -13 -38 -37 -55 -94 -3 -14 -16 -33 -28 -42 -17 -14 -21 -28 -21 -82 0 -48 5 -70 17 -84 10 -11 18 -27 18 -36 0 -32 33 -98 54 -109 33 -18 185 -12 208 9 28 25 22 33 -24 33 l-41 0 20 23 c11 12 24 32 27 44 4 12 15 25 26 28 45 14 50 67 8 81 -21 6 -21 7 6 21 36 19 33 62 -6 81 -27 13 -38 32 -18 32 6 0 10 10 10 23 0 18 -13 29 -65 55 -72 35 -97 38 -136 17z" fill="#5ce4ff" stroke="#ffb000" stroke-width="40" stroke-linejoin="round"/></g></svg>