<svg xmlns="http://www.w3.org/2000/svg" viewBox="0 0 85.000000 289.000000" width="85" height="289"><g transform="translate(0.000000,289.000000) scale(0.100000,-0.100000)"><path d="M255 2821 c-22 -10 -52 -35 -67 -54 -26 -34 -27 -39 -18 -88 6 -29 24 -77 40 -106 17 -29 27 -53 22 -53 -4 0 -22 -21 -40 -47 -18 -27 -49 -68 -68 -93 -36 -44 -36 -46 -28 -105 4 -33 8 -150 9 -260 2 -208 2 -208 49 -278 19 -28 19 -30 -2 -96 -35 -107 -37 -150 -13 -215 11 -31 21 -78 21 -104 0 -26 5 -112 12 -192 10 -130 9 -156 -7 -250 -19 -108 -29 -452 -14 -495 5 -14 0 -27 -14 -43 -21 -22 -21 -24 -4 -71 9 -27 17 -65 17 -84 0 -47 25 -62 92 -53 30 4 55 3 62 -4 24 -19 108 -29 171 -19 114 18 116 18 109 43 -5 20 0 23 55 34 33 7 63 17 67 23 3 6 -6 23 -21 39 -22 23 -36 28 -93 32 -37 3 -82 13 -101 22 -30 16 -33 21 -28 51 4 23 1 38 -9 46 -8 6 -12 20 -9 29 3 10 1 49 -5 88 -12 78 -4 146 30 251 11 33 25 109 31 168 6 59 22 160 36 223 27 122 33 292 13 329 -17 33 -12 51 15 51 30 0 32 18 7 51 -17 23 -20 134 -11 541 0 41 -19 83 -67 146 -22 29 -34 59 -39 94 -5 36 -15 58 -33 75 -28 26 -21 45 20 47 41 3 48 13 41 61 -4 31 -2 45 6 45 13 0 15 32 2 46 -13 13 -16 54 -7 82 12 36 -32 87 -88 101 -62 15 -95 14 -141 -8z" fill="#5ce4ff" stroke="#ffb000" stroke-width="40" stroke-linejoin="round"/></g></svg>