<svg xmlns="http://www.w3.org/2000/svg" viewBox="0 0 271.000000 242.000000" width="271" height="242"><g transform="translate(0.000000,242.000000) scale(0.100000,-0.100000)"><path d="M2415 2353 c-27 -2 -55 -9 -62 -14 -8 -7 -18 -7 -32 0 -14 8 -355 11 -1110 11 l-1091 0 2 -1117 3 -1118 1100 0 1100 0 3 23 c4 29 20 29 24 0 3 -22 8 -23 95 -26 81 -2 92 -1 97 15 13 43 37 460 47 832 13 472 -3 1009 -39 1331 l-7 65 -40 1 c-22 0 -62 -1 -90 -3z" fill="#5cffc0" stroke="#ffb000" stroke-width="60" stroke-linejoin="round"/></g></svg>