<svg xmlns="http://www.w3.org/2000/svg" viewBox="0 0 245.000000 550.000000" width="245" height="550"><g transform="translate(0.000000,550.000000) scale(0.100000,-0.100000)"><path d="M2170 5388 c-16 -6 -151 -10 -368 -9 l-342 1 -9 -22 c-5 -13 -13 -36 -18 -53 l-8 -30 -80 0 c-78 0 -80 1 -83 25 -6 42 -19 48 -125 54 -126 8 -935 -8 -959 -18 -10 -5 -18 -19 -18 -32 0 -17 -6 -24 -19 -24 -44 0 -51 -10 -51 -72 0 -33 4 -67 10 -77 5 -11 10 -952 12 -2502 l3 -2484 31 -10 c17 -6 38 -16 46 -22 10 -9 77 -13 224 -15 202 -3 210 -2 252 20 l44 23 481 -6 c265 -3 557 -8 648 -11 165 -5 166 -5 178 -30 10 -23 16 -25 64 -22 51 3 52 4 76 50 l23 48 54 0 54 0 3 148 c1 81 2 1255 2 2609 0 2042 -2 2464 -13 2468 -22 8 -85 5 -112 -7z" fill="#5cffc0" stroke="#ffb000" stroke-width="60" stroke-linejoin="round"/></g></svg>