<svg xmlns="http://www.w3.org/2000/svg" viewBox="0 0 772.000000 302.000000" width="772" height="302"><g transform="translate(0.000000,302.000000) scale(0.100000,-0.100000)"><path d="M6535 2970 c-87 -10 -131 -37 -231 -145 -93 -100 -172 -157 -252 -182 -79 -24 -173 -33 -263 -23 -357 39 -558 34 -782 -19 -81 -20 -175 -33 -282 -41 -269 -20 -332 -32 -658 -135 -166 -52 -322 -102 -345 -110 -51 -18 -404 -79 -577 -100 -66 -8 -174 -22 -240 -32 -98 -14 -189 -17 -495 -17 -206 1 -447 6 -535 13 -88 6 -225 16 -305 22 -196 15 -578 15 -725 0 -66 -6 -212 -21 -325 -32 -297 -29 -460 -66 -460 -103 0 -8 8 -17 18 -20 9 -3 197 -17 417 -31 220 -14 438 -30 485 -35 234 -28 483 -82 915 -198 358 -96 942 -216 1250 -257 266 -35 472 -76 569 -114 100 -38 204 -55 601 -98 88 -10 93 -25 35 -102 -50 -66 -62 -94 -90 -208 -24 -95 -70 -187 -122 -243 -99 -106 -102 -128 -44 -282 17 -44 28 -102 34 -170 7 -81 15 -115 38 -162 47 -95 61 -102 217 -98 223 5 480 21 490 31 17 17 -20 59 -73 86 -32 16 -79 28 -140 35 -50 6 -106 17 -123 24 -75 33 -132 116 -153 223 -18 97 -17 150 4 190 22 41 123 146 187 193 147 110 300 325 329 464 8 38 19 72 26 76 6 4 57 13 113 19 243 30 512 108 639 186 31 19 63 35 72 35 19 0 51 -61 61 -113 5 -25 20 -50 46 -75 22 -20 45 -54 51 -74 6 -21 19 -45 30 -54 10 -10 18 -23 18 -31 0 -23 17 -14 29 16 17 40 5 92 -38 159 -53 83 -59 102 -62 183 l-2 73 50 32 c54 34 124 110 176 190 35 54 14 44 262 120 66 20 145 49 175 64 99 50 155 61 335 70 94 4 213 13 265 19 52 6 154 15 225 21 89 8 139 17 160 29 17 9 50 50 75 91 44 72 45 75 40 139 -6 76 -41 145 -93 185 -60 46 -157 87 -223 97 -77 11 -207 59 -239 89 -13 12 -47 25 -86 32 -35 6 -73 17 -84 24 -27 17 -292 85 -320 82 -5 0 -37 -4 -70 -8z" fill="#47ff5d" stroke="#ffb000" stroke-width="70" stroke-linejoin="round"/></g></svg>