<svg xmlns="http://www.w3.org/2000/svg" viewBox="0 0 1141.000000 246.000000" width="1141" height="246"><g transform="translate(0.000000,246.000000) scale(0.100000,-0.100000)"><path d="M6800 2225 c-249 -42 -550 -125 -715 -197 -49 -22 -119 -51 -155 -64 -36 -14 -100 -48 -143 -76 -72 -47 -86 -52 -190 -70 -62 -10 -171 -38 -244 -64 -73 -25 -154 -47 -180 -49 -27 -3 -151 -14 -278 -25 -126 -12 -320 -29 -430 -40 -110 -10 -243 -22 -295 -25 -52 -3 -133 -10 -180 -15 -47 -5 -173 -15 -280 -21 -107 -6 -240 -16 -295 -24 -158 -21 -208 -26 -415 -35 -107 -5 -292 -16 -410 -24 -118 -9 -312 -20 -430 -26 -118 -5 -271 -15 -340 -20 -69 -6 -260 -15 -425 -20 -165 -5 -343 -14 -395 -20 -52 -6 -243 -22 -424 -35 -299 -23 -334 -27 -383 -50 -61 -27 -77 -41 -88 -73 -9 -31 14 -64 69 -96 56 -33 106 -43 286 -56 80 -6 231 -17 335 -25 105 -8 226 -19 270 -25 44 -5 249 -17 455 -25 206 -9 449 -19 540 -24 91 -5 269 -15 395 -21 127 -6 268 -15 315 -20 47 -6 123 -10 170 -10 100 0 292 -16 440 -36 58 -8 197 -19 310 -25 113 -5 249 -16 302 -24 53 -8 128 -15 165 -15 37 0 131 -7 208 -15 77 -8 237 -24 355 -35 118 -11 226 -23 240 -26 13 -3 78 -9 145 -13 107 -8 133 -13 240 -53 77 -29 164 -53 243 -67 112 -19 130 -26 191 -65 37 -24 124 -67 194 -95 70 -28 144 -59 164 -69 84 -40 517 -154 658 -172 39 -5 106 -14 150 -20 44 -6 97 -8 119 -4 26 4 50 1 77 -11 36 -17 40 -17 57 -2 10 10 22 17 26 17 19 0 154 74 181 99 17 15 45 34 64 41 19 8 49 29 68 47 29 30 44 36 121 48 138 23 422 84 477 103 40 13 88 17 230 18 198 1 300 12 388 40 l58 18 25 -27 c19 -21 31 -26 47 -21 36 11 47 35 45 95 -2 68 4 79 45 79 17 0 74 9 127 19 204 42 343 63 381 58 61 -8 128 -45 153 -86 56 -87 122 -117 304 -141 85 -11 93 -10 163 13 41 14 116 35 166 47 98 23 126 38 301 160 l107 75 175 5 c150 5 184 9 239 29 120 44 174 83 192 140 6 20 21 46 32 58 40 45 32 182 -16 245 -44 59 -93 99 -147 118 -30 11 -64 25 -75 30 -45 21 -107 28 -244 30 -166 1 -156 -2 -307 106 -120 87 -166 109 -289 140 -49 12 -110 30 -135 39 -36 14 -66 16 -150 12 -170 -9 -246 -41 -302 -126 -52 -79 -153 -121 -247 -102 -31 6 -94 18 -141 27 -47 8 -125 24 -175 36 -58 13 -107 18 -138 14 -78 -9 -98 9 -52 45 35 28 44 85 17 111 -17 17 -27 19 -71 13 -28 -4 -48 -11 -45 -16 7 -12 -3 -12 -104 6 -48 9 -112 20 -142 25 -30 5 -120 7 -200 3 -122 -5 -153 -3 -195 11 -49 17 -210 52 -464 100 -104 20 -127 28 -145 49 -11 14 -41 35 -66 48 -25 12 -62 37 -82 55 -24 22 -61 40 -110 54 -40 11 -83 25 -96 30 -40 17 -249 9 -392 -15z m2115 -1502 c-4 -38 -42 -64 -89 -61 -36 3 -67 28 -34 28 8 0 32 13 54 30 50 38 73 39 69 3z" fill="#47ff5d" stroke="#ffb000" stroke-width="70" stroke-linejoin="round"/></g></svg>