<svg xmlns="http://www.w3.org/2000/svg" viewBox="0 0 1766.000000 564.000000" width="1766" height="564"><g transform="translate(0.000000,564.000000) scale(0.100000,-0.100000)"><path d="M12278 5461 c-1 -5 -40 -15 -85 -23 -77 -11 -83 -14 -83 -36 0 -13 11 -43 25 -68 26 -47 32 -79 15 -89 -9 -6 5 -42 21 -55 4 -3 21 -16 38 -29 17 -13 28 -28 25 -33 -4 -5 5 -22 19 -36 14 -15 32 -40 40 -55 13 -25 84 -104 220 -245 28 -29 91 -80 139 -113 48 -33 100 -76 116 -95 15 -19 43 -45 62 -56 19 -12 37 -25 40 -28 9 -11 129 -90 137 -90 11 0 76 -62 90 -87 6 -11 14 -41 18 -67 4 -25 11 -46 16 -46 5 0 9 -7 9 -16 0 -9 10 -29 23 -44 12 -16 37 -49 55 -74 42 -57 116 -136 127 -136 5 0 16 -6 24 -14 9 -8 45 -29 81 -47 36 -18 67 -35 70 -38 14 -17 59 -39 92 -45 21 -4 40 -12 44 -18 9 -14 -37 -8 -256 32 -36 7 -89 14 -118 15 -29 2 -58 8 -65 13 -7 5 -29 14 -49 20 -21 6 -50 19 -65 30 -43 31 -124 54 -163 48 -44 -7 -74 8 -39 19 l23 8 -29 24 c-17 13 -67 41 -112 63 -46 21 -93 49 -105 63 -13 13 -30 28 -39 33 -9 5 -39 29 -67 54 -27 25 -69 61 -93 80 -24 19 -70 59 -102 88 -31 29 -82 69 -113 88 -51 33 -127 105 -260 245 -34 36 -89 76 -167 121 -114 64 -152 78 -302 107 -27 5 -84 19 -125 30 -80 23 -295 44 -320 31 -8 -4 -35 -10 -59 -14 -39 -6 -43 -5 -31 9 15 18 10 18 -61 5 -30 -6 -90 -28 -134 -50 -48 -24 -111 -46 -156 -55 -97 -18 -209 -87 -209 -128 0 -13 -5 -17 -17 -13 -10 3 -64 10 -120 16 -56 6 -128 15 -160 20 -32 6 -166 12 -298 16 -204 4 -250 8 -308 26 l-68 21 -43 -22 c-48 -24 -87 -27 -115 -9 -15 9 -28 9 -59 0 -22 -7 -66 -12 -98 -12 -33 -1 -92 -7 -133 -14 l-75 -13 -26 26 c-34 34 -126 111 -170 141 -19 14 -42 31 -50 38 -43 37 -77 60 -99 67 -13 4 -45 19 -70 34 -76 45 -198 82 -301 92 -105 10 -388 12 -435 4 -110 -20 -279 -67 -290 -80 -5 -7 -34 -14 -64 -17 -29 -3 -56 -9 -60 -14 -7 -11 -111 -54 -130 -54 -7 0 -24 -9 -38 -20 -14 -11 -32 -20 -39 -20 -8 0 -14 -4 -14 -9 0 -6 -11 -16 -25 -23 -64 -34 -273 -166 -295 -186 -14 -13 -37 -28 -51 -33 -15 -6 -35 -26 -45 -45 -10 -18 -22 -34 -26 -34 -5 0 -8 -5 -8 -10 0 -11 -51 -78 -102 -135 -58 -66 -68 -79 -68 -92 0 -8 -9 -23 -20 -35 -11 -12 -20 -28 -20 -35 0 -7 -3 -13 -8 -13 -4 0 -16 -15 -26 -34 -10 -19 -25 -37 -32 -40 -8 -3 -14 -12 -14 -21 0 -8 -4 -15 -10 -15 -5 0 -10 -7 -10 -16 0 -14 -12 -32 -60 -91 -6 -7 -10 -19 -10 -27 0 -8 -3 -16 -7 -18 -5 -1 -30 -31 -58 -65 -27 -35 -57 -63 -65 -63 -9 0 -33 -23 -55 -51 -64 -82 -154 -169 -174 -169 -24 0 -71 -37 -71 -56 0 -8 -1 -14 -3 -14 -27 0 -136 -27 -182 -44 -33 -13 -85 -27 -115 -30 -31 -4 -71 -17 -90 -30 -45 -29 -89 -43 -168 -51 -34 -4 -65 -11 -68 -16 -3 -5 -21 -9 -39 -9 -19 0 -56 -10 -82 -21 -83 -38 -128 -48 -312 -70 -70 -8 -212 -38 -276 -59 -16 -5 -79 -16 -140 -25 -60 -8 -155 -24 -210 -34 -55 -10 -134 -24 -175 -31 -41 -6 -93 -16 -115 -22 -22 -6 -65 -14 -95 -19 -30 -5 -102 -18 -160 -29 -58 -11 -141 -24 -185 -29 -44 -5 -132 -18 -195 -29 -63 -11 -128 -22 -145 -25 -16 -2 -68 -12 -115 -21 -166 -33 -336 -62 -525 -91 -161 -25 -219 -35 -260 -45 -22 -5 -60 -10 -85 -10 -25 0 -85 -9 -135 -21 -106 -23 -263 -45 -395 -54 -52 -4 -115 -13 -140 -20 -25 -7 -98 -16 -162 -20 -65 -3 -135 -12 -156 -19 -21 -8 -90 -19 -153 -25 -63 -6 -134 -14 -159 -17 -132 -15 -256 -26 -345 -29 -55 -3 -122 -9 -148 -15 -26 -5 -76 -10 -110 -10 -67 0 -137 -15 -137 -30 0 -5 17 -14 38 -19 30 -9 282 -34 447 -46 82 -6 341 -35 365 -41 70 -19 162 -32 259 -39 46 -3 87 -8 91 -10 9 -5 247 -30 490 -50 91 -8 197 -19 235 -25 39 -6 113 -14 165 -19 129 -12 368 -39 404 -46 17 -3 91 -12 165 -21 75 -9 165 -20 201 -24 120 -16 334 -40 450 -50 63 -6 128 -15 144 -20 16 -6 51 -10 77 -10 26 0 70 -4 96 -9 53 -10 234 -32 468 -56 260 -27 329 -37 363 -52 18 -8 37 -11 43 -8 12 8 322 -35 329 -45 6 -9 157 -40 193 -40 14 0 29 -4 32 -10 3 -5 32 -10 63 -10 56 0 96 -11 262 -69 60 -22 104 -31 148 -31 42 0 78 -7 107 -20 24 -11 68 -26 97 -32 53 -12 118 -44 118 -57 0 -4 18 -13 39 -20 23 -6 56 -29 80 -54 22 -23 92 -95 156 -160 63 -65 115 -123 115 -128 0 -6 13 -27 29 -47 16 -20 32 -48 36 -62 5 -14 27 -45 51 -70 24 -25 44 -51 44 -57 0 -7 4 -13 9 -13 5 0 12 -11 15 -25 4 -14 11 -25 16 -25 6 0 10 -9 10 -20 0 -11 4 -20 9 -20 5 0 11 -8 15 -17 7 -24 26 -52 53 -80 12 -12 43 -53 70 -90 52 -73 206 -229 235 -239 10 -3 18 -9 18 -14 0 -4 30 -25 68 -45 37 -21 69 -40 72 -44 23 -30 285 -195 394 -249 70 -34 236 -82 285 -82 15 0 31 -4 37 -10 30 -30 437 -34 496 -4 14 8 53 17 85 20 68 8 70 9 193 89 52 35 115 73 140 85 50 25 90 58 90 74 0 19 56 75 85 86 18 7 25 15 21 25 -4 12 5 15 52 15 82 0 100 7 107 41 4 16 12 29 18 29 7 0 6 4 -3 10 -11 7 -2 10 33 10 46 0 68 19 25 21 -13 1 0 5 27 9 36 5 64 2 100 -10 87 -29 105 -32 105 -15 0 20 48 31 71 16 22 -13 168 -16 284 -6 44 4 112 8 150 10 226 12 347 23 357 33 7 7 26 12 44 12 24 0 36 -7 50 -28 21 -31 168 -177 210 -208 113 -82 187 -99 414 -99 144 1 176 4 250 25 51 15 117 26 165 27 143 5 265 35 265 65 0 11 104 68 124 68 5 0 50 25 101 55 72 42 123 84 224 183 72 71 131 136 131 145 0 19 167 187 225 227 31 21 122 98 168 143 22 20 42 37 45 37 2 0 26 18 51 40 77 67 81 70 90 70 5 0 14 6 20 13 6 8 28 19 49 26 22 8 55 28 75 46 20 18 53 39 74 45 38 13 95 48 101 62 2 4 17 8 33 8 27 0 28 -1 17 -28 -6 -15 -20 -35 -31 -44 -10 -10 -14 -18 -8 -18 20 0 11 -38 -14 -58 -14 -11 -25 -25 -25 -31 0 -6 -4 -11 -10 -11 -5 0 -10 -7 -10 -17 0 -16 -47 -85 -62 -91 -4 -2 -8 -10 -8 -18 0 -8 -6 -14 -14 -14 -12 0 -48 -59 -46 -75 1 -3 -8 -17 -20 -32 -11 -14 -20 -34 -20 -45 0 -10 -11 -31 -25 -46 -14 -15 -25 -35 -25 -44 0 -10 -9 -23 -20 -30 -11 -7 -20 -19 -20 -26 0 -7 -7 -15 -15 -18 -8 -4 -15 -12 -15 -20 0 -8 -19 -26 -42 -41 -36 -23 -139 -122 -304 -293 -19 -19 -34 -39 -34 -44 0 -5 -8 -16 -18 -25 -9 -9 -22 -27 -28 -41 -16 -35 -101 -134 -122 -141 -7 -2 -13 -30 -15 -72 -2 -45 -7 -71 -17 -77 -11 -7 -12 -14 -2 -35 10 -21 9 -31 -8 -62 -10 -20 -17 -40 -14 -45 8 -13 92 -10 97 5 2 8 25 11 75 10 55 -2 80 2 105 17 17 10 56 25 85 34 48 14 149 73 241 141 19 14 42 25 53 25 10 0 18 4 18 9 0 8 59 49 85 60 6 2 19 11 30 21 11 9 74 50 140 90 66 40 122 76 123 81 2 5 9 9 15 9 6 0 56 30 110 68 55 37 107 72 116 78 9 6 50 30 91 54 41 24 86 53 100 65 14 12 51 39 84 61 32 21 79 54 105 71 25 18 63 44 84 58 20 14 37 29 37 33 0 4 26 23 58 42 31 19 59 38 62 41 3 4 34 28 70 54 36 27 72 54 80 62 38 36 216 143 263 158 28 10 72 26 97 35 25 10 70 23 100 29 30 7 73 18 95 26 22 7 91 28 154 45 63 18 124 38 135 45 12 7 38 16 58 19 21 4 55 17 77 29 35 20 38 24 23 35 -14 10 -12 11 15 6 33 -5 73 9 73 27 0 5 -10 14 -22 19 l-23 9 23 7 c24 7 30 30 10 37 -7 2 0 3 15 1 17 -2 26 0 22 6 -3 6 5 10 19 10 18 0 24 -4 20 -15 -9 -24 21 -18 54 10 33 28 48 31 55 12 2 -7 31 -26 63 -42 33 -16 118 -65 189 -108 72 -43 153 -89 180 -102 73 -34 256 -111 285 -120 14 -4 66 -25 115 -47 50 -23 137 -58 195 -78 216 -77 302 -110 333 -126 132 -68 353 -177 396 -194 38 -15 50 -16 44 -6 -19 32 -122 135 -173 171 -30 22 -68 52 -85 67 -65 60 -280 208 -360 248 -27 14 -88 48 -135 76 -47 28 -97 54 -112 58 -14 3 -46 22 -70 41 -24 19 -92 59 -153 89 -84 41 -127 69 -180 119 -38 37 -73 67 -77 67 -4 0 -22 16 -39 35 -17 19 -53 49 -80 67 -27 18 -49 38 -49 45 0 6 15 30 33 53 26 35 47 48 120 76 49 19 96 34 105 34 10 0 41 9 71 20 29 12 88 29 130 40 42 10 90 23 107 28 53 17 193 102 214 131 20 29 42 106 33 115 -9 9 38 24 192 61 197 47 317 85 312 98 -2 6 -14 14 -28 18 -27 8 -242 43 -364 59 -118 16 -136 20 -133 33 3 18 -12 57 -23 57 -5 0 -9 6 -9 13 -1 22 -48 47 -117 61 -72 15 -164 44 -333 107 -58 21 -125 44 -150 50 -28 8 -38 14 -27 17 16 3 12 10 -21 42 -21 21 -47 55 -56 75 -10 20 -24 39 -32 42 -8 3 -14 12 -14 19 0 8 -21 34 -47 59 l-48 44 52 53 c28 29 66 70 85 92 31 36 136 122 293 241 37 28 80 67 96 87 17 20 78 73 137 117 150 112 149 111 197 158 24 23 56 48 73 57 17 9 36 21 44 28 7 8 38 29 68 48 30 19 57 37 60 41 3 4 20 15 38 26 18 11 54 40 80 65 26 24 54 49 64 54 9 5 46 36 82 69 35 33 77 68 91 78 37 27 24 33 -27 13 -42 -17 -167 -87 -198 -111 -17 -14 -73 -42 -355 -180 -110 -54 -213 -108 -230 -120 -16 -12 -41 -26 -54 -30 -13 -4 -57 -27 -96 -51 -40 -24 -92 -51 -116 -59 -24 -9 -71 -37 -104 -62 -32 -25 -90 -62 -128 -81 -37 -20 -73 -44 -78 -54 -5 -10 -24 -24 -42 -32 -31 -13 -133 -87 -213 -153 -28 -24 -34 -33 -20 -33 20 0 17 -21 -4 -28 -8 -3 -10 0 -5 7 7 12 -9 11 -99 -6 -19 -3 -26 -2 -22 6 5 7 -4 14 -23 17 -17 4 -31 10 -31 13 0 10 -59 37 -134 63 -33 12 -71 27 -83 35 -12 8 -86 36 -165 63 -79 26 -169 60 -201 74 -32 14 -64 26 -72 26 -18 0 -151 43 -225 72 -68 28 -107 51 -235 142 -109 78 -115 82 -165 111 -18 11 -41 28 -51 37 -27 26 -59 40 -75 34 -11 -4 -14 -1 -9 13 4 14 -3 24 -27 40 -42 27 -64 42 -171 119 -48 34 -90 62 -93 62 -3 0 -26 14 -51 30 -24 17 -48 30 -54 30 -5 0 -9 4 -9 8 0 4 -15 16 -32 26 -18 11 -64 40 -103 66 -38 26 -83 54 -100 63 -16 9 -41 26 -55 39 -14 13 -77 54 -140 92 -63 38 -139 87 -168 108 -29 22 -118 75 -199 118 -80 44 -167 95 -194 115 -27 19 -55 35 -63 35 -7 0 -40 13 -72 30 -58 29 -109 39 -116 21z m3022 -1681 c0 -5 -7 -7 -15 -4 -8 4 -15 8 -15 10 0 2 7 4 15 4 8 0 15 -4 15 -10z m-9267 -77 c-7 -2 -19 -2 -25 0 -7 3 -2 5 12 5 14 0 19 -2 13 -5z m3047 -3013 c13 -8 12 -10 -4 -10 -10 0 -29 -11 -42 -25 -13 -14 -31 -25 -41 -25 -14 0 -15 2 -5 9 7 4 15 16 16 27 2 10 14 22 27 25 34 10 32 10 49 -1z m3273 -327 c-7 -2 -19 -2 -25 0 -7 3 -2 5 12 5 14 0 19 -2 13 -5z M17235 4794 c-9 -9 -14 -18 -12 -20 5 -6 57 20 57 29 0 13 -28 7 -45 -9z" fill="#47ffe0" stroke="#ffb000" stroke-width="120" stroke-linejoin="round"/></g></svg>