<svg xmlns="http://www.w3.org/2000/svg" viewBox="0 0 772.000000 311.000000" width="772" height="311"><g transform="translate(0.000000,311.000000) scale(0.100000,-0.100000)"><path d="M6945 3063 c-78 -20 -211 -71 -296 -113 -110 -56 -202 -120 -352 -247 -54 -46 -116 -92 -137 -103 -79 -40 -196 -19 -341 62 -78 44 -224 191 -289 291 -24 38 -55 74 -69 81 -32 15 -87 7 -129 -20 -35 -22 -92 -90 -92 -111 0 -7 -10 -27 -22 -44 -19 -25 -21 -34 -11 -59 6 -17 9 -55 6 -88 -4 -39 -2 -62 6 -66 6 -4 11 -22 11 -39 0 -18 12 -50 25 -72 14 -22 25 -51 25 -65 0 -25 20 -62 74 -139 37 -53 30 -71 -29 -71 -36 0 -88 18 -223 76 -97 42 -206 87 -242 99 -36 13 -81 30 -100 38 -75 32 -224 68 -347 82 -186 22 -486 20 -648 -5 -415 -62 -542 -94 -880 -223 -161 -61 -311 -148 -446 -257 -31 -25 -93 -74 -138 -109 -45 -34 -116 -95 -159 -133 -42 -39 -88 -78 -102 -87 -22 -14 -175 -139 -348 -284 -31 -26 -97 -73 -147 -104 -49 -31 -115 -75 -145 -98 -306 -235 -578 -339 -920 -352 -159 -6 -190 -13 -190 -42 0 -46 81 -68 300 -81 304 -18 508 13 865 131 66 21 125 39 131 39 19 0 346 108 484 159 74 28 158 59 185 70 28 10 102 35 166 55 l116 36 74 -15 c152 -30 177 -43 164 -92 -3 -15 -19 -43 -34 -62 -46 -60 -57 -83 -80 -161 -43 -150 -44 -151 -81 -175 -48 -30 -55 -40 -78 -110 -12 -33 -33 -86 -48 -119 -35 -77 -29 -146 20 -243 61 -119 46 -113 276 -113 128 0 201 4 205 10 13 21 -21 52 -100 93 -69 36 -83 48 -103 89 -38 73 -27 105 57 172 37 30 109 75 160 101 98 49 254 145 265 164 4 6 13 11 20 11 25 0 -3 -98 -48 -167 -15 -24 -27 -60 -31 -98 -4 -33 -13 -80 -21 -104 -9 -26 -12 -57 -8 -75 8 -38 53 -121 109 -201 39 -56 44 -60 91 -67 64 -8 387 -8 443 0 24 4 46 12 47 17 2 6 -27 29 -64 52 -37 24 -101 65 -143 93 -42 27 -81 50 -86 50 -33 0 -99 115 -89 155 7 27 119 153 209 234 l68 62 187 -2 c103 -1 214 1 247 5 128 16 312 47 359 61 27 8 55 15 61 15 7 0 15 -53 23 -153 17 -216 30 -322 48 -402 8 -38 20 -90 25 -115 6 -24 15 -48 22 -52 23 -14 145 -20 323 -16 101 3 187 8 191 11 11 12 -57 75 -114 104 -29 15 -55 35 -58 44 -3 9 -36 46 -74 82 l-69 67 19 73 c10 39 25 116 32 170 15 96 34 143 63 154 33 12 172 -78 208 -136 31 -48 97 -113 232 -227 103 -86 183 -180 184 -216 1 -27 49 -68 92 -78 24 -5 105 -10 180 -10 128 0 138 1 152 21 25 37 3 77 -60 105 -35 15 -58 33 -68 53 -9 16 -41 58 -71 93 -31 34 -96 122 -145 193 -49 72 -107 155 -129 185 -23 30 -45 64 -50 75 -30 64 -111 262 -111 271 0 7 10 19 23 27 12 8 42 33 65 56 24 23 50 41 58 41 20 0 178 89 187 106 4 8 19 14 33 14 13 0 41 7 62 16 179 76 338 85 622 36 128 -22 210 -43 305 -77 121 -44 135 -47 201 -42 80 6 115 21 168 70 51 49 49 79 -7 101 -23 9 -49 16 -57 16 -7 0 -32 9 -54 19 -23 10 -57 22 -77 25 -22 4 -48 19 -69 41 -19 19 -38 35 -44 35 -19 0 -172 79 -189 98 -14 15 -15 24 -6 49 15 44 57 60 100 38 26 -14 50 -16 138 -11 58 3 124 8 147 12 73 11 122 -10 191 -83 89 -93 115 -73 117 87 0 90 -9 117 -69 206 -28 42 -33 102 -11 137 17 26 63 161 68 197 3 21 -1 25 -22 22 -14 -1 -43 -20 -65 -42 -53 -52 -164 -103 -235 -108 -68 -5 -221 33 -317 79 -162 77 -224 202 -157 316 53 92 231 207 422 273 91 32 110 49 75 69 -22 12 -19 16 42 38 37 14 50 24 50 38 0 18 -8 20 -80 22 -44 0 -89 -1 -100 -4z" fill="#47ffe0" stroke="#ffb000" stroke-width="70" stroke-linejoin="round"/></g></svg>