<svg xmlns="http://www.w3.org/2000/svg" viewBox="0 0 1725.000000 515.000000" width="1725" height="515"><g transform="translate(0.000000,515.000000) scale(0.100000,-0.100000)"><path d="M14505 5035 c-22 -7 -71 -20 -110 -29 -102 -25 -225 -78 -280 -120 -26 -20 -54 -36 -61 -36 -7 0 -18 -9 -24 -20 -6 -11 -15 -20 -20 -20 -5 0 -44 -25 -87 -56 -43 -31 -88 -60 -100 -65 -12 -4 -53 -26 -91 -47 -37 -21 -90 -46 -117 -56 -65 -21 -384 -42 -427 -27 -17 6 -60 13 -96 17 -37 3 -112 21 -167 39 -55 18 -127 39 -160 46 -33 7 -66 19 -73 26 -8 7 -18 11 -23 7 -6 -3 -20 1 -32 9 -24 15 -125 54 -172 66 -16 4 -44 15 -62 24 -18 10 -44 17 -59 17 -22 0 -25 -2 -14 -15 10 -13 9 -15 -11 -14 -13 0 -40 6 -59 14 -35 13 -32 18 15 28 12 3 8 5 -12 6 -17 0 -34 5 -37 10 -6 10 -69 22 -271 51 -77 12 -156 25 -175 30 -45 13 -111 12 -130 0 -12 -8 -12 -10 5 -11 l20 0 -20 -9 c-27 -12 -57 -12 -50 -1 9 15 -23 20 -122 19 -69 0 -93 -4 -97 -14 -3 -8 -19 -14 -38 -14 -25 0 -29 3 -18 10 19 12 -140 12 -220 0 -159 -24 -190 -30 -245 -46 -33 -9 -82 -20 -110 -24 -112 -17 -288 -54 -415 -87 -74 -20 -175 -44 -225 -54 -49 -9 -128 -29 -175 -42 -85 -24 -127 -34 -425 -102 -88 -20 -231 -54 -318 -76 -86 -22 -201 -44 -255 -50 -140 -16 -218 -26 -292 -39 -36 -6 -96 -15 -135 -20 -152 -19 -281 -41 -302 -52 -11 -6 -26 -7 -31 -4 -6 4 -32 1 -59 -6 -26 -6 -77 -13 -113 -14 -210 -7 -398 -16 -489 -24 -57 -4 -109 -6 -116 -4 -7 3 -51 -5 -99 -16 -63 -16 -90 -19 -100 -11 -18 15 -48 15 -131 3 -38 -6 -162 -11 -275 -11 -400 0 -812 -27 -1080 -70 -36 -6 -85 -11 -110 -11 -47 0 -224 -21 -375 -45 -49 -8 -115 -17 -145 -20 -58 -6 -270 -41 -455 -75 -60 -11 -195 -34 -300 -50 -104 -16 -251 -43 -325 -60 -74 -17 -160 -36 -190 -42 -58 -11 -253 -60 -330 -83 -25 -8 -63 -17 -85 -20 -22 -4 -62 -13 -90 -20 -87 -24 -256 -66 -363 -91 -57 -13 -147 -37 -200 -53 -53 -16 -115 -32 -137 -36 -22 -3 -58 -12 -80 -19 -22 -8 -101 -33 -175 -56 -74 -23 -151 -48 -170 -55 -19 -7 -64 -22 -100 -33 -36 -11 -110 -36 -165 -56 -55 -19 -120 -42 -145 -51 -25 -9 -63 -24 -85 -34 -22 -10 -51 -22 -65 -25 -14 -4 -34 -11 -45 -16 -11 -5 -42 -18 -70 -29 -131 -51 -213 -88 -482 -217 -73 -35 -137 -64 -143 -64 -5 0 -10 -3 -10 -8 0 -4 -21 -19 -47 -32 -27 -14 -50 -27 -53 -30 -3 -3 -18 -11 -33 -18 -15 -6 -33 -17 -40 -22 -7 -6 -26 -19 -43 -28 -47 -26 -185 -115 -204 -132 -9 -8 -39 -26 -66 -40 -27 -14 -51 -28 -54 -31 -11 -13 -135 -99 -142 -99 -15 0 -68 -43 -68 -55 0 -6 -14 -21 -30 -33 -17 -13 -30 -26 -30 -31 0 -11 71 -23 134 -22 50 1 131 32 186 71 15 11 36 20 47 20 15 -1 13 -5 -11 -25 -16 -13 -41 -29 -55 -37 -25 -12 -31 -17 -66 -46 -20 -17 -20 -52 1 -52 10 0 14 -6 11 -14 -4 -10 5 -15 31 -18 34 -4 87 17 202 80 8 5 31 17 50 27 85 43 110 58 116 66 7 12 71 11 79 -1 4 -6 -5 -10 -19 -10 -14 0 -26 -4 -26 -9 0 -5 -14 -12 -30 -16 -28 -6 -43 -25 -19 -25 6 0 1 -8 -12 -19 -21 -17 -22 -21 -9 -36 31 -37 176 -3 275 65 24 16 47 30 50 30 10 0 175 109 203 134 17 15 25 17 34 8 9 -9 7 -12 -10 -12 -13 0 -22 -6 -22 -15 0 -8 5 -15 10 -15 6 0 10 5 10 10 0 6 6 10 14 10 8 0 16 4 18 8 3 7 56 43 140 95 15 9 37 17 48 17 19 0 20 -2 6 -15 -8 -8 -18 -15 -23 -15 -16 -1 -63 -49 -63 -65 0 -8 -9 -15 -19 -15 -27 0 -211 -168 -211 -192 0 -21 36 -18 108 10 42 17 94 33 116 36 21 3 46 12 56 21 9 8 33 15 53 15 20 0 37 4 37 8 0 10 71 42 93 42 30 0 18 -16 -44 -56 l-61 -39 44 -3 c50 -3 185 45 230 83 15 13 49 31 75 41 26 9 52 21 57 26 6 4 24 8 42 8 18 0 57 13 87 29 59 31 67 22 24 -26 -20 -22 -20 -23 -1 -23 10 0 46 14 78 30 32 17 69 30 82 30 48 0 144 59 144 89 0 10 10 12 40 7 30 -5 43 -2 57 12 22 23 171 62 232 62 46 0 125 31 151 60 8 9 41 28 73 43 44 20 57 23 57 11 0 -18 31 -18 78 1 29 13 41 14 59 4 19 -10 32 -8 83 15 71 30 95 33 104 10 5 -13 14 -15 39 -9 17 3 60 10 94 15 43 5 76 17 108 39 54 36 85 40 85 11 0 -16 7 -20 31 -20 47 0 211 60 236 86 28 30 92 74 108 74 6 0 12 -7 12 -15 0 -8 -4 -15 -9 -15 -4 0 -8 -3 -8 -7 0 -5 33 -9 74 -11 56 -2 78 1 89 13 9 8 20 15 24 15 5 0 19 10 30 23 12 12 33 30 47 40 14 10 26 24 26 31 0 7 20 26 45 41 24 16 42 32 39 37 -3 4 5 8 17 8 17 0 20 -3 12 -11 -28 -28 60 -62 133 -52 50 6 136 58 148 88 9 25 34 17 38 -12 3 -25 8 -28 42 -31 21 -2 53 4 71 12 43 21 45 20 45 -9 0 -14 3 -25 8 -25 17 1 42 29 42 49 0 17 6 21 30 21 17 0 30 5 30 10 0 6 9 19 19 29 16 16 29 18 85 14 77 -7 114 6 155 52 16 18 38 38 49 44 25 13 82 15 82 2 0 -35 106 -19 172 25 39 26 54 32 68 24 28 -15 96 -12 110 5 7 8 19 15 26 15 8 0 14 4 14 8 0 5 12 15 28 22 15 8 34 20 42 26 12 10 25 10 58 1 32 -8 53 -8 89 1 34 10 48 10 53 2 5 -9 18 -9 46 -1 52 15 63 13 40 -4 -27 -20 -12 -19 19 1 35 23 86 32 131 25 30 -5 52 -1 93 17 60 26 108 23 97 -5 -7 -17 11 -16 103 10 29 8 70 13 90 10 22 -3 52 1 75 11 61 25 149 18 106 -9 -6 -3 -10 -13 -10 -22 0 -13 8 -14 43 -9 23 4 44 11 45 16 2 6 16 10 30 10 15 0 38 9 52 20 26 20 51 25 64 13 4 -4 -3 -15 -16 -25 l-23 -18 43 0 c26 0 58 8 80 21 32 18 41 19 67 9 17 -7 24 -14 17 -17 -6 -3 -10 -9 -6 -14 7 -12 47 -12 60 1 6 6 47 7 106 3 75 -4 94 -9 85 -18 -7 -6 -19 -14 -27 -18 -8 -3 17 -6 57 -6 67 -1 100 -12 71 -24 -7 -3 6 -6 30 -6 26 -1 41 3 37 9 -4 6 5 10 20 10 15 0 24 4 20 10 -4 6 5 10 19 10 14 0 26 -4 26 -10 0 -5 12 -10 26 -10 14 0 23 4 19 10 -3 6 3 10 14 10 26 0 34 -15 16 -30 -20 -17 -19 -27 5 -35 30 -9 120 16 120 33 0 10 -8 13 -25 10 -14 -3 -28 -2 -31 3 -8 13 46 23 58 11 6 -6 24 -8 39 -5 30 6 89 -13 89 -28 0 -5 12 -10 28 -10 l27 -1 -30 -8 -30 -8 27 -1 c26 -1 51 -21 27 -21 -10 0 -10 -3 -1 -12 8 -8 28 -8 81 0 97 16 107 16 90 -4 -10 -13 -10 -17 2 -25 20 -12 25 -11 44 8 11 10 39 18 74 21 55 4 55 3 33 -13 -18 -13 -21 -20 -11 -31 9 -11 7 -14 -14 -14 -29 0 -46 -17 -25 -25 17 -7 101 29 118 50 10 12 8 16 -11 24 -18 7 -11 8 26 4 63 -7 72 -15 52 -46 -9 -14 -13 -27 -10 -31 13 -13 64 -6 70 10 8 22 53 38 67 24 8 -8 6 -15 -6 -24 -21 -15 -24 -46 -5 -46 6 0 25 7 42 16 22 11 44 14 86 9 49 -6 58 -4 67 12 12 20 17 18 26 -14 6 -17 0 -25 -34 -44 -22 -12 -40 -26 -40 -31 0 -15 39 -8 57 11 24 24 57 41 82 41 25 0 27 -15 5 -28 -23 -13 0 -26 41 -25 16 1 24 -1 18 -3 -22 -9 -14 -24 12 -24 16 0 25 6 25 15 0 8 9 15 20 15 11 0 20 -4 20 -10 0 -5 8 -10 18 -10 13 0 14 2 4 9 -16 10 16 21 58 21 24 -1 25 -1 5 -16 -25 -18 -13 -27 57 -45 26 -7 45 -16 42 -21 -3 -4 2 -8 10 -8 10 0 13 -6 9 -17 -6 -14 0 -15 50 -10 59 7 88 -6 36 -17 -31 -6 -32 -26 0 -26 9 0 27 -9 40 -21 21 -19 21 -22 5 -33 -15 -11 -13 -12 14 -8 26 3 31 1 34 -19 3 -21 8 -24 39 -21 21 2 40 -1 43 -7 8 -12 -25 -31 -53 -31 -37 0 -24 -29 16 -36 35 -7 36 -8 14 -16 -13 -5 -32 -6 -41 -3 -9 3 -25 2 -34 -1 -32 -12 5 -22 61 -17 58 6 75 -11 23 -22 -24 -5 -29 -10 -20 -20 8 -10 7 -14 -2 -18 -7 -2 -10 -7 -7 -11 4 -4 14 0 22 9 20 19 54 19 74 -1 11 -11 26 -14 49 -9 27 5 33 3 28 -8 -3 -9 3 -17 18 -20 13 -4 29 -20 36 -37 8 -16 19 -30 25 -30 7 0 17 -8 23 -17 10 -16 7 -18 -32 -14 -28 2 -44 -1 -44 -8 0 -6 20 -11 48 -11 26 0 53 -4 61 -9 22 -14 2 -33 -26 -26 -20 5 -24 3 -20 -9 4 -9 -14 -31 -51 -63 -31 -26 -74 -65 -94 -85 -20 -21 -41 -38 -46 -38 -12 0 -22 -24 -22 -51 0 -10 -11 -26 -25 -35 -14 -9 -25 -21 -25 -27 0 -6 -12 -24 -27 -40 -19 -20 -24 -31 -15 -34 19 -7 14 -23 -8 -23 -11 0 -20 -5 -20 -10 0 -6 -11 -20 -25 -32 -14 -12 -25 -30 -25 -40 0 -10 -4 -18 -8 -18 -5 0 -10 -21 -11 -47 -4 -70 -5 -74 -29 -123 -15 -30 -22 -64 -22 -105 0 -38 -6 -69 -16 -83 -8 -12 -12 -22 -7 -22 4 0 0 -5 -9 -11 -9 -5 -15 -16 -12 -23 3 -8 -3 -17 -15 -21 -11 -3 -50 -35 -87 -70 -37 -35 -80 -69 -96 -76 -15 -6 -28 -15 -28 -19 0 -4 -13 -10 -28 -13 -16 -3 -34 -17 -42 -31 -7 -14 -17 -26 -22 -26 -4 0 -8 -8 -8 -19 0 -10 -6 -24 -13 -30 -16 -12 -40 -87 -33 -99 3 -5 0 -26 -5 -48 -24 -98 -30 -219 -12 -247 4 -7 6 -26 4 -43 -1 -18 3 -35 8 -39 6 -3 9 -11 5 -16 -3 -6 -7 -27 -9 -47 -1 -20 -8 -68 -14 -107 -7 -38 -11 -88 -10 -110 4 -82 0 -103 -21 -110 -10 -3 -29 -1 -40 5 -48 26 -34 -29 15 -60 30 -18 34 -26 40 -81 7 -56 10 -62 39 -75 26 -11 27 -13 9 -14 -24 0 -43 -26 -43 -58 0 -17 6 -19 50 -14 51 5 63 -5 35 -28 -9 -7 -26 -9 -45 -5 -31 7 -31 6 -19 -17 7 -12 12 -26 11 -30 -1 -5 21 -19 49 -32 40 -20 56 -23 76 -15 29 11 48 0 48 -29 0 -9 10 -22 23 -28 13 -6 23 -15 23 -20 -1 -5 23 -8 52 -8 176 4 394 4 425 0 30 -5 32 -4 12 3 -16 6 25 9 120 9 159 0 202 6 193 28 -8 22 41 17 62 -6 11 -12 30 -20 49 -20 27 1 29 2 15 13 -9 7 -20 27 -23 45 -6 24 -13 32 -29 32 -35 0 -67 11 -61 21 3 5 15 9 26 9 21 0 21 0 2 21 -22 24 -61 42 -75 33 -5 -3 1 -14 13 -24 17 -14 19 -19 8 -20 -24 0 -62 31 -56 46 3 9 -7 17 -32 24 -48 13 -62 13 -62 -1 0 -18 -127 -4 -146 16 -10 9 -34 15 -67 15 -29 0 -69 3 -90 6 l-38 7 28 16 c15 9 57 26 93 36 67 20 87 36 126 104 33 56 36 91 9 103 -14 6 -21 17 -19 31 1 12 3 29 3 37 1 9 24 29 51 45 28 16 50 33 50 37 0 4 14 8 30 8 17 0 30 4 30 9 0 13 -103 25 -150 17 -25 -4 -40 -2 -40 4 0 5 12 10 28 10 15 0 34 5 42 10 11 7 5 10 -23 10 -45 0 -77 -15 -77 -35 0 -8 -9 -15 -19 -15 -11 0 -23 -5 -26 -10 -3 -6 -13 -10 -21 -10 -8 0 -12 4 -9 10 3 5 -4 10 -15 10 -13 0 -24 -8 -27 -20 -3 -12 -14 -20 -25 -20 -16 0 -18 -3 -9 -13 8 -10 6 -19 -10 -35 -11 -12 -18 -26 -15 -31 3 -4 -6 -13 -20 -20 -16 -7 -24 -17 -21 -25 9 -23 -56 -49 -85 -35 -21 9 -26 22 -36 92 -14 103 -15 214 -2 222 5 3 10 26 10 51 0 24 5 53 10 64 6 11 15 29 20 40 6 11 10 24 10 29 0 6 11 26 24 46 23 34 30 60 41 149 2 22 14 49 25 61 11 12 20 26 20 33 0 6 19 30 41 54 23 24 48 53 56 65 15 23 174 123 195 123 7 0 35 11 63 24 79 38 165 76 171 76 4 0 19 11 36 25 16 14 39 25 50 25 11 0 32 6 46 14 15 8 42 20 60 26 17 7 32 16 32 20 0 4 12 11 27 15 28 7 136 67 158 88 55 54 95 86 113 91 12 4 22 11 22 16 0 13 72 51 86 46 8 -3 14 -12 14 -20 0 -19 27 -11 53 15 16 17 47 16 47 -1 0 -4 12 -5 26 -2 15 3 23 10 20 18 -3 7 0 15 7 18 7 2 -9 5 -35 5 -53 1 -63 15 -20 27 l27 7 -30 7 -30 7 40 8 c22 4 49 14 60 21 26 18 54 18 61 -1 4 -8 16 -15 28 -15 24 0 61 -20 38 -20 -8 0 -12 -6 -10 -12 5 -14 -19 -43 -42 -50 -13 -5 -12 -7 3 -13 24 -10 50 2 43 20 -7 19 11 19 30 0 9 -8 11 -15 6 -15 -20 0 16 -105 42 -122 6 -4 23 -8 38 -8 21 0 25 -4 21 -20 -3 -11 -13 -20 -22 -20 -10 0 -18 -6 -19 -12 0 -7 -4 -23 -7 -35 -4 -13 -3 -23 2 -23 15 0 13 -41 -3 -47 -29 -11 -54 -86 -47 -141 4 -39 2 -54 -11 -67 -17 -18 -22 -45 -7 -45 23 0 41 14 41 31 0 10 5 19 10 19 12 0 12 0 -1 -39 -9 -24 -17 -31 -33 -29 -28 3 -46 -9 -46 -32 0 -10 -11 -40 -25 -66 -14 -27 -26 -58 -27 -71 -1 -12 -8 -25 -15 -28 -20 -7 7 -45 31 -45 16 0 17 -3 8 -12 -10 -10 -17 -10 -32 0 -16 10 -20 10 -20 -2 0 -8 -8 -27 -17 -44 -11 -18 -14 -35 -8 -48 4 -10 7 -39 5 -63 -1 -25 3 -47 10 -51 6 -4 14 -26 17 -49 4 -31 13 -47 32 -59 14 -8 35 -25 46 -37 29 -32 50 -41 165 -71 58 -14 127 -37 155 -50 27 -12 85 -38 128 -58 66 -30 78 -39 83 -64 4 -21 18 -36 45 -51 21 -12 44 -32 50 -43 10 -18 8 -24 -12 -39 l-24 -19 28 0 c29 0 72 34 62 50 -14 23 28 20 82 -5 70 -32 62 -28 197 -109 98 -60 114 -66 165 -67 31 0 49 -3 41 -6 -8 -2 -22 -7 -30 -10 -9 -3 5 -12 35 -23 76 -26 108 -32 100 -20 -4 6 9 10 37 9 l43 -1 -33 -12 -33 -12 21 -19 c17 -15 34 -19 80 -18 46 2 62 -2 72 -15 13 -17 62 -52 73 -52 13 0 3 40 -12 49 -16 9 -14 10 8 11 14 0 41 -5 58 -11 25 -9 38 -9 55 1 13 6 31 10 41 8 9 -2 22 5 29 15 9 15 7 21 -8 33 -19 13 -18 14 15 15 32 0 33 1 10 10 -14 5 -36 9 -50 8 -47 -4 -104 1 -98 8 4 3 35 5 69 4 46 -1 59 2 48 9 -8 6 -42 9 -75 8 -43 -2 -67 2 -83 14 l-24 16 23 13 c13 7 51 12 84 12 46 0 53 2 32 8 -16 4 -34 15 -40 23 -20 26 -157 61 -142 36 3 -5 19 -10 34 -10 28 0 87 -37 77 -48 -3 -2 -11 0 -18 5 -7 6 -33 13 -56 16 -35 4 -48 1 -63 -14 -20 -20 -20 -20 43 -14 46 5 59 4 48 -4 -8 -6 -26 -11 -39 -11 l-24 0 21 -23 c44 -47 20 -83 -44 -65 -23 6 -33 13 -24 16 23 7 50 34 44 43 -3 5 -14 9 -25 9 -11 0 -22 7 -25 15 -4 9 -20 16 -38 16 l-31 1 30 8 c21 5 24 8 10 10 -15 1 -16 3 -5 7 16 6 40 32 40 44 0 8 -75 39 -96 39 -13 0 -13 -2 -2 -13 7 -7 22 -19 33 -26 17 -10 14 -11 -25 -7 l-45 6 32 -15 c17 -8 34 -19 38 -25 11 -18 -39 -10 -65 10 -14 11 -35 20 -47 20 -12 0 -25 5 -29 11 -5 9 1 10 20 5 16 -4 26 -2 26 5 0 6 -9 13 -19 16 -17 4 -18 8 -8 25 10 16 19 18 59 13 26 -4 56 -4 67 0 18 5 19 8 7 20 -7 8 -25 17 -38 20 -39 10 -76 106 -45 118 10 4 10 6 0 6 -21 1 -15 29 9 42 29 15 131 6 154 -15 11 -9 38 -32 61 -51 23 -20 55 -62 71 -93 20 -38 36 -57 48 -57 12 0 18 6 15 15 -2 8 -3 23 -3 32 0 9 -6 22 -14 28 -7 7 -11 16 -9 20 3 5 -4 25 -15 45 -11 19 -20 40 -20 45 0 5 -14 25 -32 44 -29 31 -33 33 -44 18 -11 -15 -15 -15 -49 1 -35 17 -38 17 -50 1 -13 -19 -35 -11 -35 12 0 11 16 14 70 14 39 0 70 3 70 6 0 11 -42 44 -56 44 -7 0 -17 -7 -22 -16 -5 -9 -18 -14 -33 -12 -23 3 -22 5 24 51 26 26 47 51 47 56 0 5 7 12 16 15 10 4 13 13 9 25 -4 13 0 20 17 24 12 4 19 9 15 13 -4 4 1 13 11 21 9 8 11 12 5 8 -21 -10 -14 9 12 34 14 13 25 34 25 46 0 13 6 30 13 37 6 7 20 38 31 68 18 56 94 179 110 180 10 0 -2 -120 -13 -135 -4 -5 -14 -32 -21 -60 -8 -27 -24 -65 -37 -84 -44 -65 -22 -70 38 -9 33 35 38 43 24 50 -13 8 -11 13 13 33 23 19 49 73 57 115 2 13 43 68 73 98 18 18 30 37 27 43 -4 5 -1 9 6 9 6 0 9 8 6 19 -3 12 1 22 10 25 12 5 13 9 3 21 -10 12 -9 16 2 20 8 3 14 21 15 41 1 20 10 45 21 57 16 18 19 39 21 122 2 72 8 112 21 143 14 32 18 55 13 88 -5 36 -2 47 12 58 12 9 15 18 9 27 -4 8 -7 24 -6 36 2 14 -4 23 -17 28 -21 6 -29 25 -11 25 15 0 12 42 -4 66 -8 11 -16 31 -18 44 -2 17 -10 26 -26 28 -22 3 -22 5 -6 16 15 12 14 15 -11 38 -21 20 -26 32 -23 53 3 15 1 28 -6 31 -7 3 -10 19 -8 39 3 21 0 35 -7 35 -6 0 -11 9 -11 19 0 10 -7 21 -15 25 -27 10 -16 26 25 32 22 4 45 13 51 20 14 17 39 18 39 2 0 -6 12 0 28 14 15 15 46 31 69 37 23 7 46 17 50 24 16 25 66 57 89 57 13 0 33 9 44 20 l20 20 -25 0 c-18 0 -23 4 -19 15 5 11 21 15 60 15 55 0 63 4 106 58 9 11 14 23 11 26 -3 3 6 8 20 11 35 9 43 34 14 44 l-22 8 22 7 c12 4 29 18 38 32 16 25 16 25 -12 22 -20 -2 -27 -8 -25 -20 2 -10 -2 -18 -8 -18 -5 0 -10 5 -10 10 0 6 -11 15 -25 22 -34 15 -21 30 20 22 42 -7 76 3 69 21 -4 8 7 17 30 25 32 10 66 53 66 82 0 5 11 19 24 31 14 12 34 39 44 60 20 38 86 96 109 97 6 0 18 6 25 13 7 6 67 39 132 72 65 33 134 72 154 88 19 15 40 27 47 27 7 0 48 28 92 63 113 90 150 117 162 117 6 0 11 5 11 10 0 6 7 10 15 10 8 0 15 3 15 8 0 17 62 34 152 42 106 9 231 2 222 -11 -3 -5 1 -9 8 -9 64 -2 123 -11 132 -20 5 -5 17 -10 25 -10 9 0 29 -7 44 -15 41 -21 89 -28 118 -17 28 11 56 1 45 -16 -4 -6 15 -13 46 -17 29 -4 62 -12 73 -19 11 -7 43 -18 70 -25 28 -7 67 -19 88 -27 20 -8 51 -14 67 -14 16 0 31 -4 34 -9 3 -4 28 -11 55 -15 28 -4 53 -11 57 -17 4 -7 29 -8 69 -4 68 8 156 -2 135 -15 -19 -12 11 -19 138 -31 183 -17 327 -56 440 -118 138 -77 186 -101 207 -101 9 0 30 -8 48 -17 32 -17 118 -34 170 -33 65 1 187 73 187 111 0 16 -8 19 -52 20 -42 1 -48 3 -28 9 14 4 22 8 18 9 -4 1 -3 14 2 30 8 29 7 29 -17 20 -38 -14 -42 -11 -36 25 3 19 1 36 -6 40 -6 4 -11 1 -11 -7 0 -8 -6 -20 -14 -26 -24 -20 -30 7 -11 55 9 25 15 48 12 50 -9 9 -57 -27 -57 -42 0 -8 -9 -14 -20 -14 -23 0 -25 12 -8 43 13 25 21 97 10 97 -13 0 -42 -57 -34 -65 4 -5 2 -5 -4 -2 -6 4 -19 -2 -29 -13 -10 -11 -22 -20 -27 -20 -11 0 -10 34 2 46 6 6 7 27 2 51 -6 35 -9 40 -22 30 -8 -7 -22 -25 -30 -41 -24 -47 -36 -42 -37 15 -1 46 -12 68 -33 69 -3 0 -7 -17 -8 -37 -3 -36 -16 -62 -26 -52 -3 3 -6 24 -7 47 -2 27 -8 42 -16 42 -7 0 -13 -5 -13 -11 0 -5 -4 -8 -9 -5 -5 3 -12 -2 -15 -11 -9 -21 -28 -4 -31 29 -4 36 -4 38 -15 38 -5 0 -10 -7 -10 -15 0 -9 -9 -15 -25 -15 -20 0 -25 5 -25 26 0 14 -9 37 -20 51 -15 19 -20 21 -20 9 0 -26 -18 -18 -37 17 -16 30 -18 30 -21 10 -4 -25 -22 -32 -22 -9 0 8 -5 18 -12 22 -7 4 -8 3 -4 -4 10 -17 -26 -15 -61 2 -72 37 -244 116 -252 116 -12 0 -33 52 -24 61 9 9 91 -12 150 -37 17 -8 34 -14 37 -14 19 0 258 -118 271 -133 6 -7 16 -12 23 -13 37 -3 42 -5 42 -18 0 -19 22 -26 63 -19 40 6 56 -9 35 -34 -12 -15 -10 -16 17 -10 17 3 38 9 48 12 12 5 17 2 17 -9 0 -22 24 -30 49 -16 17 9 22 8 27 -5 5 -12 14 -14 34 -10 21 5 31 2 39 -12 8 -14 12 -16 22 -5 21 20 42 15 36 -9 -5 -19 -3 -21 28 -16 34 6 57 -6 33 -16 -7 -3 -3 -6 10 -6 12 -1 22 3 22 7 0 11 46 32 70 32 24 0 26 -27 4 -58 -15 -21 -14 -22 19 -22 24 0 41 8 62 30 22 23 38 30 67 30 27 0 40 5 48 20 14 26 12 240 -2 257 -6 7 -8 22 -5 33 3 11 1 20 -4 20 -5 0 -9 6 -9 13 0 8 -9 22 -20 32 -11 10 -20 24 -20 31 0 14 -38 52 -110 109 -25 19 -50 39 -56 44 -6 5 -69 39 -140 76 -71 37 -136 73 -145 81 -8 8 -26 14 -38 14 -22 0 -78 33 -92 53 -4 6 -16 7 -28 4 -12 -3 -19 -1 -16 3 3 5 -4 11 -15 15 -11 3 -20 11 -20 16 0 5 -27 16 -60 26 -37 10 -56 19 -48 24 8 5 3 10 -14 14 -15 4 -29 13 -32 20 -2 7 -18 16 -35 20 -17 4 -33 11 -37 16 -8 13 -116 67 -190 95 -33 12 -78 31 -100 42 -145 73 -516 204 -636 225 -35 6 -55 14 -51 20 4 6 -2 8 -17 4 -13 -3 -31 -2 -40 3 -26 14 -220 31 -390 35 -85 2 -164 5 -175 8 -11 3 -38 -1 -60 -8z m75 -25 c-14 -4 -45 -8 -70 -8 -40 0 -42 1 -15 8 17 4 48 8 70 8 34 0 36 -1 15 -8z m1795 -520 c3 -5 -1 -10 -9 -10 -9 0 -16 5 -16 10 0 6 4 10 9 10 6 0 13 -4 16 -10z m-8028 -176 c-3 -3 -12 -4 -19 -1 -8 3 -5 6 6 6 11 1 17 -2 13 -5z m8513 -94 c8 -5 11 -10 5 -10 -5 0 -17 5 -25 10 -8 5 -10 10 -5 10 6 0 17 -5 25 -10z m190 -170 c0 -5 -7 -10 -16 -10 -8 0 -12 5 -9 10 3 6 10 10 16 10 5 0 9 -4 9 -10z m-593 -386 c-3 -3 -12 -4 -19 -1 -8 3 -5 6 6 6 11 1 17 -2 13 -5z m-8310 -220 c-3 -3 -12 -4 -19 -1 -8 3 -5 6 6 6 11 1 17 -2 13 -5z m608 -94 c-3 -5 -10 -10 -16 -10 -5 0 -9 5 -9 10 0 6 7 10 16 10 8 0 12 -4 9 -10z m375 -76 c0 -2 -15 -4 -32 -3 -27 0 -29 2 -13 8 18 8 45 4 45 -5z m323 -161 c-7 -2 -21 -2 -30 0 -10 3 -4 5 12 5 17 0 24 -2 18 -5z m104 -169 c-3 -3 -12 -4 -19 -1 -8 3 -5 6 6 6 11 1 17 -2 13 -5z m95 -35 c14 -14 15 -18 3 -23 -16 -6 -29 9 -21 23 3 5 -3 11 -14 14 -11 3 -20 11 -20 17 0 13 18 2 52 -31z m3558 -99 c0 -13 -11 -13 -30 0 -12 8 -11 10 8 10 12 0 22 -4 22 -10z m-443 -456 c-3 -3 -12 -4 -19 -1 -8 3 -5 6 6 6 11 1 17 -2 13 -5z m-2117 -288 c0 -3 -4 -8 -10 -11 -5 -3 -10 -1 -10 4 0 6 5 11 10 11 6 0 10 -2 10 -4z m290 -626 c0 -5 -4 -10 -10 -10 -5 0 -10 5 -10 10 0 6 5 10 10 10 6 0 10 -4 10 -10z m1827 4 c-3 -3 -12 -4 -19 -1 -8 3 -5 6 6 6 11 1 17 -2 13 -5z m-1887 -194 c0 -5 -8 -10 -17 -10 -15 0 -16 2 -3 10 19 12 20 12 20 0z m707 -686 c-3 -3 -12 -4 -19 -1 -8 3 -5 6 6 6 11 1 17 -2 13 -5z m-2623 -143 c8 -13 -21 -34 -39 -27 -20 7 -8 36 15 36 11 0 21 -4 24 -9z m3038 -73 c-17 -8 -26 -8 -34 0 -9 9 -4 12 23 11 32 0 33 -1 11 -11z m135 -54 c-3 -3 -12 -4 -19 -1 -8 3 -5 6 6 6 11 1 17 -2 13 -5z m163 -43 c24 -7 24 -8 -9 -15 -25 -6 -37 -4 -49 8 -15 15 -14 16 8 15 14 -1 36 -4 50 -8z m234 0 c7 -11 -41 -24 -55 -16 -5 4 -7 11 -4 16 8 12 52 12 59 0z m-147 -27 c-3 -3 -12 -4 -19 -1 -8 3 -5 6 6 6 11 1 17 -2 13 -5z m-3389 -54 c2 -6 10 -10 18 -10 8 0 14 -4 14 -10 0 -5 -13 -10 -29 -10 -21 0 -32 6 -36 19 -3 11 -11 22 -18 24 -7 2 2 3 18 0 17 -2 32 -8 33 -13z m107 -20 c4 -6 -5 -10 -19 -10 -14 0 -26 5 -26 10 0 6 9 10 19 10 11 0 23 -4 26 -10z M11573 4943 c9 -2 25 -2 35 0 9 3 1 5 -18 5 -19 0 -27 -2 -17 -5z M7950 3490 c0 -5 4 -10 9 -10 6 0 13 5 16 10 3 6 -1 10 -9 10 -9 0 -16 -4 -16 -10z M7967 3443 c-16 -8 -27 -17 -25 -19 9 -9 77 10 82 22 7 18 -20 17 -57 -3z M8745 3284 c-28 -14 -39 -23 -25 -20 41 8 100 30 100 38 0 14 -24 8 -75 -18z M8940 3230 c-9 -6 -10 -10 -3 -10 6 0 15 5 18 10 8 12 4 12 -15 0z M9118 3203 c6 -2 18 -2 25 0 6 3 1 5 -13 5 -14 0 -19 -2 -12 -5z M9187 3183 c-32 -4 -36 -7 -26 -19 6 -8 25 -14 42 -14 17 0 27 3 24 7 -4 3 1 12 11 19 19 15 21 14 -51 7z M9200 3115 c0 -11 11 -15 36 -15 19 0 33 4 29 9 -3 5 7 12 22 14 16 2 2 5 -29 6 -46 1 -58 -2 -58 -14z M9305 3090 c3 -5 19 -10 36 -10 16 0 29 5 29 10 0 6 -16 10 -36 10 -21 0 -33 -4 -29 -10z M9275 3060 c-7 -11 9 -11 45 0 24 8 24 8 -7 9 -17 1 -35 -3 -38 -9z M9297 3044 c-11 -12 3 -24 29 -24 16 0 24 5 22 13 -5 13 -40 22 -51 11z M9358 2963 c7 -3 16 -2 19 1 4 3 -2 6 -13 5 -11 0 -14 -3 -6 -6z M9565 2790 c3 -5 29 -10 56 -10 31 0 48 4 44 10 -3 6 -29 10 -56 10 -31 0 -48 -4 -44 -10z M9656 2715 c-4 -12 -1 -16 11 -13 18 3 21 20 5 26 -5 1 -12 -4 -16 -13z M10786 2065 c-3 -9 0 -15 10 -15 8 0 13 4 10 9 -4 5 0 12 6 14 8 4 7 6 -3 6 -9 1 -19 -6 -23 -14z M9710 811 c-21 -6 -18 -9 25 -15 28 -4 61 -10 75 -12 14 -3 6 3 -19 15 -24 12 -46 21 -50 20 -3 -1 -17 -4 -31 -8z M9850 765 c0 -9 9 -15 25 -15 14 0 29 -8 35 -20 9 -18 8 -20 -16 -20 -15 0 -25 -3 -21 -6 9 -9 137 -21 137 -13 0 8 -76 59 -89 59 -5 0 -14 7 -21 15 -7 8 -21 15 -31 15 -11 0 -19 -7 -19 -15z M12475 340 c3 -5 10 -10 16 -10 5 0 9 5 9 10 0 6 -7 10 -16 10 -8 0 -12 -4 -9 -10z M12600 341 c0 -16 31 -41 51 -41 17 0 18 -3 7 -22 -7 -13 -16 -25 -20 -29 -4 -3 8 -22 27 -42 19 -20 35 -42 35 -47 0 -6 9 -10 20 -10 13 0 20 7 20 20 0 11 -5 20 -11 20 -6 0 -8 8 -4 19 4 13 0 23 -11 29 -11 6 -13 11 -5 16 12 8 11 9 -52 64 -38 32 -57 40 -57 23z M9678 263 c12 -2 32 -2 45 0 12 2 2 4 -23 4 -25 0 -35 -2 -22 -4z M12228 193 c6 -2 18 -2 25 0 6 3 1 5 -13 5 -14 0 -19 -2 -12 -5z" fill="#6a4729" stroke="#ffb000" stroke-width="50" stroke-linejoin="round"/></g></svg>