<svg xmlns="http://www.w3.org/2000/svg" viewBox="0 0 1125.000000 200.000000" width="1125" height="200"><g transform="translate(0.000000,200.000000) scale(0.100000,-0.100000)"><path d="M8223 1769 c-21 -11 -46 -18 -56 -15 -13 3 -17 0 -13 -10 7 -17 -18 -18 -62 -3 -26 9 -35 8 -48 -5 -8 -9 -21 -16 -29 -16 -13 0 -30 -64 -20 -79 6 -11 -6 -15 -86 -31 -31 -6 -68 -8 -81 -5 -25 6 -84 -13 -187 -61 -31 -14 -57 -21 -60 -16 -3 5 -17 10 -31 10 -14 0 -54 13 -90 29 -36 16 -85 35 -110 42 -25 7 -57 17 -72 21 -75 23 -242 -12 -453 -95 -38 -15 -118 -45 -176 -66 -59 -20 -115 -42 -125 -48 -11 -5 -63 -24 -116 -41 -54 -17 -113 -42 -132 -55 -23 -16 -36 -20 -39 -12 -3 8 -9 7 -18 -4 -16 -18 -179 -70 -289 -92 -104 -21 -221 -44 -315 -61 -48 -9 -183 -18 -335 -21 -140 -4 -307 -13 -370 -21 -63 -8 -194 -21 -290 -30 l-175 -17 -200 28 c-268 37 -322 43 -445 48 -58 3 -116 9 -130 15 -14 5 -95 12 -180 16 -217 10 -562 35 -645 47 -38 5 -169 14 -290 19 -121 5 -260 13 -310 19 -211 24 -359 35 -500 36 -82 0 -202 7 -265 14 -63 8 -214 14 -335 15 -201 1 -225 -1 -280 -20 -33 -12 -99 -27 -148 -33 -48 -6 -122 -25 -165 -40 -42 -16 -104 -37 -137 -46 -33 -9 -83 -32 -112 -51 -28 -19 -54 -34 -58 -34 -8 0 -78 -55 -124 -98 -19 -17 -38 -32 -42 -32 -4 0 -11 -9 -14 -20 -10 -32 58 -127 129 -183 89 -69 193 -136 256 -164 30 -13 75 -33 100 -45 122 -55 220 -78 405 -99 82 -9 132 -9 199 0 49 6 92 9 96 6 4 -2 21 0 39 5 17 5 108 11 203 15 94 3 192 10 217 15 25 4 82 11 126 15 44 4 109 13 145 20 126 26 641 59 766 49 70 -5 102 -3 140 9 53 17 127 24 329 32 132 6 233 20 385 55 47 11 164 36 260 55 198 40 208 42 345 81 89 25 118 28 265 29 91 1 284 5 430 10 178 5 318 3 425 -4 88 -7 223 -14 300 -17 77 -3 147 -8 155 -11 8 -3 42 -5 75 -4 45 1 68 -4 94 -19 36 -23 34 -30 -17 -50 -27 -10 -46 -10 -108 1 -62 11 -72 15 -55 23 12 5 21 15 21 23 0 11 -12 13 -57 9 -32 -3 -113 -11 -181 -17 -121 -10 -164 -20 -230 -54 -26 -13 -46 -16 -90 -10 -31 4 -62 11 -69 17 -15 12 -33 2 -33 -18 0 -8 -11 -19 -24 -25 -60 -28 -44 -214 24 -274 17 -15 37 -20 84 -21 33 -1 95 -4 136 -8 80 -8 211 11 217 31 4 12 -77 43 -116 44 -55 1 13 16 124 27 184 19 375 25 398 14 34 -16 238 -55 382 -73 83 -10 102 -9 240 16 83 14 187 28 233 30 95 3 374 31 562 55 59 8 105 6 230 -10 85 -11 176 -20 203 -20 26 0 47 -4 47 -10 0 -13 96 -13 121 1 16 8 25 7 37 -4 9 -8 43 -18 75 -22 51 -7 56 -9 40 -21 -25 -18 2 -19 37 -1 14 8 36 16 48 19 18 5 22 2 22 -17 0 -13 -8 -29 -17 -34 -29 -17 4 -33 57 -27 25 3 66 1 91 -3 33 -5 52 -4 65 6 11 8 31 11 54 7 25 -4 49 0 74 11 44 21 55 15 32 -20 -13 -20 -14 -25 -3 -25 19 0 70 49 87 82 17 34 29 37 120 21 83 -14 128 -6 167 30 18 16 20 23 11 41 -6 11 -15 24 -21 27 -5 4 13 21 39 40 27 18 74 56 104 85 l55 51 97 7 c62 4 99 3 103 -4 9 -15 56 -12 158 11 56 13 136 22 205 23 62 2 115 6 119 10 9 9 51 7 57 -3 7 -11 56 -9 74 3 7 4 16 5 19 2 3 -3 12 -1 19 4 6 6 16 10 20 8 16 -4 129 14 134 21 3 4 23 17 45 30 48 29 181 51 310 52 50 0 109 7 133 15 24 8 82 14 131 14 52 0 102 6 122 14 19 7 64 19 102 26 56 10 67 16 67 32 0 33 -18 56 -54 68 -19 6 -37 17 -39 24 -4 9 -48 20 -124 31 -65 9 -188 28 -273 41 -86 13 -164 24 -174 24 -37 0 -156 42 -156 56 0 7 -16 16 -37 20 -21 3 -47 12 -58 19 -24 14 -109 30 -255 46 -117 14 -177 13 -231 -1 -31 -9 -43 -6 -84 15 -58 31 -172 43 -259 26 -47 -9 -62 -8 -68 1 -6 10 -10 10 -16 0 -5 -7 -16 -10 -25 -6 -10 3 -17 1 -17 -5 0 -16 -36 -13 -50 4 -7 8 -9 15 -4 15 15 1 -68 70 -107 90 -19 10 -41 26 -48 34 -8 9 -19 16 -26 16 -19 0 -38 27 -26 35 29 17 31 43 6 73 -14 17 -25 35 -25 42 0 13 -76 5 -95 -10 -21 -16 -77 -22 -85 -10 -8 13 -56 34 -115 50 -16 4 -44 15 -62 24 -39 20 -128 36 -205 36 -31 0 -68 4 -81 9 -19 8 -34 5 -64 -10z m505 -128 c10 -6 9 -10 -7 -14 -14 -3 -21 0 -21 9 0 16 9 18 28 5z m-3951 -567 c-3 -3 -12 -4 -19 -1 -8 3 -5 6 6 6 11 1 17 -2 13 -5z m4451 -301 c-10 -2 -26 -2 -35 0 -10 3 -2 5 17 5 19 0 27 -2 18 -5z m-2975 -290 c-7 -2 -21 -2 -30 0 -10 3 -4 5 12 5 17 0 24 -2 18 -5z" fill="#6a4729" stroke="#ffb000" stroke-width="50" stroke-linejoin="round"/></g></svg>