<svg xmlns="http://www.w3.org/2000/svg" viewBox="0 0 801.000000 88.000000" width="801" height="88"><g transform="translate(0.000000,88.000000) scale(0.100000,-0.100000)"><path d="M5387 764 c-3 -4 -23 -10 -44 -14 -21 -5 -116 -25 -212 -45 -96 -20 -213 -42 -260 -50 -92 -14 -191 -47 -216 -72 -12 -11 -56 -17 -193 -24 -260 -12 -326 -19 -437 -42 -99 -21 -115 -21 -1090 -18 -1202 4 -1763 -11 -2455 -65 -260 -20 -328 -28 -340 -40 -14 -15 -6 -16 80 -10 643 43 1630 59 2705 44 698 -11 767 -16 1145 -89 58 -11 164 -26 235 -34 247 -28 323 -44 357 -78 14 -14 43 -30 64 -36 69 -18 301 -25 430 -11 120 12 123 11 195 -13 41 -14 110 -30 154 -36 44 -7 109 -16 145 -21 36 -6 117 -12 181 -14 81 -3 134 -11 177 -25 86 -29 97 -28 123 19 13 22 34 47 47 56 20 13 22 18 11 25 -10 6 -10 9 -2 9 7 0 29 18 50 40 58 61 112 71 367 70 179 -1 217 -4 270 -21 34 -10 72 -26 86 -34 14 -7 64 -17 110 -20 105 -8 166 2 365 61 71 21 97 24 225 22 180 -4 235 5 257 38 15 24 15 26 -8 42 -38 27 -64 32 -249 42 -185 11 -240 18 -240 30 0 7 -39 20 -125 41 -27 7 -56 17 -64 23 -19 15 -202 13 -271 -4 -37 -8 -159 -13 -368 -15 l-312 -3 -38 44 c-20 25 -52 61 -69 82 -18 20 -38 49 -45 64 -18 40 -32 41 -96 11 -53 -25 -69 -27 -252 -34 -107 -4 -207 -10 -222 -14 -23 -6 -28 -4 -29 11 -4 88 -24 114 -89 114 -26 0 -49 -3 -53 -6z" fill="#d747ff" stroke="#ffb000" stroke-width="60" stroke-linejoin="round"/></g></svg>