<svg xmlns="http://www.w3.org/2000/svg" viewBox="0 0 1047.000000 337.000000" width="1047" height="337"><g transform="translate(0.000000,337.000000) scale(0.100000,-0.100000)"><path d="M8721 3264 c-25 -8 -47 -17 -50 -21 -3 -5 -27 -25 -53 -46 -30 -24 -51 -50 -58 -75 -7 -20 -19 -47 -27 -60 -17 -27 -73 -162 -73 -177 -1 -15 -101 -141 -134 -166 -25 -19 -44 -23 -137 -27 -85 -4 -117 -1 -150 12 -23 9 -44 15 -47 12 -2 -3 -20 1 -39 9 -20 8 -50 15 -69 15 -18 0 -59 7 -91 15 -31 8 -73 15 -93 15 -19 0 -55 7 -80 16 -36 13 -102 17 -340 19 -162 2 -346 6 -407 10 -64 4 -113 4 -113 -1 0 -5 -98 -10 -218 -12 -239 -3 -296 -6 -422 -21 -47 -6 -127 -11 -178 -11 -73 0 -94 -3 -98 -15 -5 -11 -22 -15 -63 -15 -31 0 -85 -5 -121 -10 -36 -5 -184 -21 -330 -35 -146 -14 -272 -28 -280 -30 -37 -11 -586 -35 -1020 -45 -884 -19 -1565 -52 -1880 -90 -41 -5 -138 -16 -215 -24 -77 -9 -167 -20 -200 -26 -93 -17 -242 -40 -323 -50 -40 -5 -123 -21 -185 -34 -62 -14 -139 -30 -172 -36 -33 -7 -67 -18 -76 -26 -8 -8 -49 -20 -90 -28 -41 -8 -99 -21 -129 -30 -30 -8 -67 -18 -82 -21 -15 -3 -35 -14 -45 -24 -21 -22 -92 -44 -348 -106 -104 -25 -203 -51 -218 -57 -38 -15 -33 -47 9 -62 20 -7 29 -16 26 -25 -7 -22 27 -41 74 -41 30 0 46 -5 53 -17 6 -12 24 -18 58 -19 26 -1 51 -3 56 -3 4 -1 7 -10 7 -20 0 -25 20 -31 79 -24 44 5 50 3 56 -16 8 -26 37 -27 118 -6 72 19 67 19 67 -5 0 -27 51 -27 122 0 68 26 71 25 64 -5 -10 -40 15 -41 107 -6 46 17 86 31 90 31 4 0 7 -11 7 -25 0 -17 5 -25 18 -25 28 0 114 25 149 43 41 21 41 21 45 -5 3 -20 8 -23 48 -21 26 1 74 14 112 32 37 17 70 31 73 31 3 0 5 -9 5 -20 0 -35 49 -24 237 57 6 2 13 -6 15 -19 4 -33 41 -27 134 23 76 41 76 41 90 20 9 -12 26 -21 39 -21 25 0 126 50 150 74 28 27 54 29 74 5 24 -30 73 -20 134 26 50 38 68 43 87 20 26 -32 79 -19 160 39 31 23 43 26 54 17 19 -16 64 -4 99 26 33 27 52 29 61 8 8 -21 35 -19 76 6 24 15 50 21 80 20 30 -1 61 7 92 23 38 19 49 21 58 11 13 -15 42 -9 88 18 23 14 42 17 64 13 23 -5 46 0 83 18 68 33 108 37 420 38 206 1 300 -3 395 -16 69 -10 173 -19 233 -22 59 -2 149 -11 200 -19 80 -14 191 -29 307 -41 19 -2 118 -8 220 -14 102 -6 187 -15 188 -21 2 -5 12 -9 22 -9 9 0 23 -6 29 -14 9 -10 28 -12 76 -8 45 3 65 1 65 -7 0 -6 8 -11 19 -11 53 0 159 -84 147 -116 -3 -7 -1 -16 3 -19 5 -3 18 -23 29 -44 12 -22 25 -48 31 -58 17 -33 45 -98 46 -108 1 -16 28 -68 44 -88 16 -19 7 -31 -48 -69 -24 -17 -121 -132 -176 -209 -43 -60 -152 -138 -288 -207 -155 -79 -207 -124 -232 -199 -10 -32 -20 -78 -20 -103 -3 -79 -41 -185 -76 -211 -17 -13 -43 -34 -58 -46 -18 -14 -35 -20 -49 -16 -17 4 -22 1 -22 -14 0 -21 29 -53 48 -53 21 0 13 -17 -25 -54 -37 -35 -38 -39 -38 -105 0 -40 5 -74 13 -83 7 -9 13 -42 14 -74 1 -71 33 -130 76 -140 15 -4 32 -11 38 -15 21 -16 103 -22 119 -9 9 7 27 10 45 7 16 -4 32 -2 35 4 4 5 15 7 26 4 10 -3 28 -8 39 -11 33 -9 23 13 -25 60 -38 36 -54 44 -97 49 -74 9 -88 26 -88 109 l0 68 39 0 c48 0 78 11 111 42 14 13 42 31 63 40 36 17 45 38 38 94 -2 17 54 34 110 34 53 0 92 -14 126 -44 13 -11 26 -17 29 -13 16 15 -22 68 -73 103 -47 32 -65 39 -120 42 -48 3 -75 0 -106 -14 -52 -23 -97 -62 -97 -84 0 -17 -18 -40 -32 -40 -17 0 -6 31 47 135 30 60 55 114 55 121 0 6 7 18 16 25 9 7 20 24 25 37 6 14 28 32 61 46 29 13 62 34 73 46 11 12 38 31 60 41 22 10 48 23 58 29 9 5 25 15 35 20 9 6 33 17 52 26 19 9 53 25 75 35 22 10 47 19 56 19 9 0 30 7 45 15 16 8 39 15 52 15 30 0 241 69 272 90 14 9 45 24 70 34 25 10 52 22 60 27 8 5 24 13 35 18 30 13 165 156 165 175 0 9 6 16 13 16 7 0 30 18 51 40 27 29 46 40 67 40 16 0 38 6 49 12 26 17 49 -6 54 -53 14 -120 20 -150 32 -160 8 -6 14 -24 14 -39 0 -15 14 -60 31 -101 29 -67 32 -84 32 -184 1 -63 -4 -131 -12 -158 -9 -33 -10 -52 -3 -59 7 -7 7 -20 1 -37 -5 -15 -8 -72 -7 -127 3 -94 4 -99 24 -96 14 2 24 -5 32 -22 6 -14 38 -45 70 -68 78 -58 88 -66 141 -118 26 -25 63 -59 83 -76 20 -17 39 -41 43 -53 3 -11 15 -26 27 -32 15 -8 18 -17 14 -35 -7 -27 11 -33 33 -11 10 10 14 9 21 -3 29 -51 35 -53 141 -63 139 -14 352 -9 412 8 27 8 61 12 78 8 38 -7 38 11 2 44 -34 29 -37 30 -198 43 -107 9 -139 16 -180 37 -27 14 -51 27 -53 28 -1 1 5 16 14 33 8 18 14 47 13 65 -1 17 1 42 5 54 4 14 0 36 -14 62 -26 52 -26 54 12 97 42 47 83 64 158 64 33 0 60 3 60 8 0 15 -41 32 -93 38 -97 11 -171 -27 -231 -118 -9 -14 -16 -30 -14 -34 1 -5 -4 -20 -11 -33 -9 -16 -12 -43 -9 -75 6 -55 2 -76 -13 -76 -31 0 -250 232 -281 297 -11 24 -24 46 -29 48 -4 3 -4 16 1 28 11 29 30 165 30 222 0 24 5 47 10 50 6 3 10 24 10 45 0 96 49 240 82 240 9 0 21 -13 27 -30 5 -17 20 -34 31 -38 12 -4 27 -19 33 -32 8 -16 24 -27 42 -30 18 -3 34 -14 40 -28 7 -15 18 -22 37 -22 18 0 33 -9 48 -30 14 -20 30 -30 47 -30 14 0 39 -11 55 -25 18 -15 37 -23 48 -20 9 3 29 -4 43 -15 21 -16 34 -20 62 -14 20 3 35 2 35 -3 0 -18 50 -34 70 -23 26 14 60 -7 60 -38 0 -12 7 -25 15 -28 11 -5 15 -21 15 -61 0 -47 3 -56 20 -60 12 -3 20 -13 19 -22 -5 -56 2 -80 24 -83 15 -2 21 -9 20 -22 -3 -34 15 -66 37 -66 11 0 22 -6 24 -12 2 -7 9 -32 15 -55 11 -40 14 -43 46 -43 l35 0 0 -54 c0 -70 17 -86 65 -63 l35 17 1 -28 c1 -44 7 -64 22 -79 13 -13 18 -13 45 1 41 21 42 21 42 -13 0 -34 22 -55 49 -46 32 10 73 74 91 143 12 47 23 68 38 73 11 4 23 13 27 19 7 11 10 207 4 225 -2 6 1 11 6 13 6 1 11 -8 13 -20 8 -54 24 -98 36 -98 7 0 14 6 15 13 10 69 11 112 3 135 -6 15 -13 39 -16 53 -3 15 -25 53 -49 85 -50 67 -162 284 -147 284 6 0 13 -7 16 -15 4 -8 17 -15 30 -15 57 0 82 -26 105 -107 9 -32 15 -40 25 -33 20 17 25 58 13 103 -13 48 -82 147 -119 170 -38 24 -127 114 -155 155 -46 71 -150 168 -197 185 -26 9 -221 142 -240 164 -25 27 -10 82 27 105 58 34 80 46 105 53 14 4 41 20 60 35 42 32 71 43 168 66 39 9 72 21 72 26 0 4 11 6 24 2 17 -4 28 1 42 18 11 13 28 23 39 23 11 0 19 6 18 13 -2 8 10 12 35 12 45 0 106 35 79 46 -27 10 -20 24 12 24 16 0 31 6 34 14 3 7 19 16 36 19 17 4 31 12 31 20 0 7 18 21 40 31 40 18 53 36 25 36 -12 0 -10 5 6 21 16 16 18 23 8 35 -9 11 -8 18 5 32 9 10 16 24 16 32 0 22 142 154 190 177 92 42 130 49 260 46 162 -3 215 -8 325 -26 50 -8 155 -25 235 -36 261 -38 285 -42 315 -51 17 -4 59 -11 95 -15 65 -6 67 -5 118 32 34 26 54 48 58 68 19 77 -7 120 -98 169 -29 16 -87 46 -128 68 -41 23 -93 54 -115 70 -22 16 -98 67 -170 114 -71 46 -143 92 -160 103 -16 11 -42 25 -57 32 -16 7 -28 16 -28 20 0 4 -10 11 -22 15 -20 6 -66 25 -163 69 -81 36 -127 47 -220 52 -82 5 -117 2 -191 -16 -105 -24 -140 -26 -159 -8 -36 32 -46 37 -67 36 -13 -1 -43 -7 -67 -15z m-251 -2174 c0 -5 -4 -10 -10 -10 -5 0 -10 5 -10 10 0 6 5 10 10 10 6 0 10 -4 10 -10z" fill="#d747ff" stroke="#ffb000" stroke-width="70" stroke-linejoin="round"/></g></svg>